<svg width="1336" height="492" viewBox="0 0 1336 492" fill="none" xmlns="http://www.w3.org/2000/svg">
<rect width="1336" height="492" rx="24" fill="url(#paint0_linear_4167_243)"/>
<g clip-path="url(#clip0_4167_243)">
<g style="mix-blend-mode:overlay" filter="url(#filter0_f_4167_243)">
<ellipse cx="1141.8" cy="45.0163" rx="398.611" ry="49.8741" transform="rotate(11 1141.8 45.0163)" fill="white" fill-opacity="0.5"/>
</g>
<g style="mix-blend-mode:overlay" filter="url(#filter1_f_4167_243)">
<ellipse cx="1204.8" cy="0.0162956" rx="398.611" ry="49.8741" transform="rotate(11 1204.8 0.0162956)" fill="white"/>
</g>
<g style="mix-blend-mode:overlay" filter="url(#filter2_f_4167_243)">
<ellipse cx="47.5069" cy="25.3204" rx="184.219" ry="61.5921" transform="rotate(-23 47.5069 25.3204)" fill="white"/>
</g>
<g style="mix-blend-mode:overlay" opacity="0.4" filter="url(#filter3_f_4167_243)">
<ellipse cx="47.5079" cy="25.3211" rx="184.219" ry="61.5921" transform="rotate(-23 47.5079 25.3211)" fill="white"/>
</g>
<g style="mix-blend-mode:overlay" filter="url(#filter4_f_4167_243)">
<path d="M1054 532.095C1054 532.095 1148.15 368.118 1185.37 253.559C1222.6 139.001 1242.81 -49.0001 1242.81 -49.0001L1439.41 14.8778C1439.41 14.8778 1414.75 201.704 1377.61 316.021C1340.47 430.338 1250.6 595.973 1250.6 595.973L1054 532.095Z" fill="white"/>
</g>
<g style="mix-blend-mode:overlay" filter="url(#filter5_f_4167_243)">
<path d="M-61.3494 255.578C-61.3494 255.578 100.96 352.576 214.851 391.792C328.743 431.008 516.363 454.5 516.363 454.5L449.063 649.951C449.063 649.951 262.696 622.042 149.045 582.909C35.3933 543.775 -128.649 451.029 -128.649 451.029L-61.3494 255.578Z" fill="white"/>
</g>
<g style="mix-blend-mode:overlay" filter="url(#filter6_f_4167_243)">
<path d="M-53 528C-53 528 178.383 603.371 329 603.371C479.617 603.371 700.5 528 700.5 528L711 771.213C711 771.213 479.299 805.5 329 805.5C178.701 805.5 -53 771.213 -53 771.213V528Z" fill="white"/>
</g>
<g style="mix-blend-mode:overlay" filter="url(#filter7_f_4167_243)">
<path d="M528.487 483.072C528.487 483.072 826.265 457.475 991.862 380.256C1157.46 303.037 1356.93 96.7622 1356.93 96.7622L1508.46 391.578C1508.46 391.578 1273.45 552.689 1108.2 629.745C942.953 706.801 668.473 783.271 668.473 783.271L528.487 483.072Z" fill="white" fill-opacity="0.4"/>
</g>
<g style="mix-blend-mode:overlay" filter="url(#filter8_f_4167_243)">
<rect x="20" y="20" width="1296" height="452" stroke="url(#paint1_linear_4167_243)" stroke-width="40"/>
</g>
<g style="mix-blend-mode:overlay">
<rect x="1" y="1" width="1334" height="490" rx="23" stroke="url(#paint2_linear_4167_243)" stroke-width="2"/>
</g>
</g>
<defs>
<filter id="filter0_f_4167_243" x="665.398" y="-130.448" width="952.81" height="350.928" filterUnits="userSpaceOnUse" color-interpolation-filters="sRGB">
<feFlood flood-opacity="0" result="BackgroundImageFix"/>
<feBlend mode="normal" in="SourceGraphic" in2="BackgroundImageFix" result="shape"/>
<feGaussianBlur stdDeviation="42.5" result="effect1_foregroundBlur_4167_243"/>
</filter>
<filter id="filter1_f_4167_243" x="728.398" y="-175.448" width="952.81" height="350.928" filterUnits="userSpaceOnUse" color-interpolation-filters="sRGB">
<feFlood flood-opacity="0" result="BackgroundImageFix"/>
<feBlend mode="normal" in="SourceGraphic" in2="BackgroundImageFix" result="shape"/>
<feGaussianBlur stdDeviation="42.5" result="effect1_foregroundBlur_4167_243"/>
</filter>
<filter id="filter2_f_4167_243" x="-208.789" y="-151.311" width="512.591" height="353.262" filterUnits="userSpaceOnUse" color-interpolation-filters="sRGB">
<feFlood flood-opacity="0" result="BackgroundImageFix"/>
<feBlend mode="normal" in="SourceGraphic" in2="BackgroundImageFix" result="shape"/>
<feGaussianBlur stdDeviation="42.5" result="effect1_foregroundBlur_4167_243"/>
</filter>
<filter id="filter3_f_4167_243" x="-208.788" y="-151.31" width="512.591" height="353.262" filterUnits="userSpaceOnUse" color-interpolation-filters="sRGB">
<feFlood flood-opacity="0" result="BackgroundImageFix"/>
<feBlend mode="normal" in="SourceGraphic" in2="BackgroundImageFix" result="shape"/>
<feGaussianBlur stdDeviation="42.5" result="effect1_foregroundBlur_4167_243"/>
</filter>
<filter id="filter4_f_4167_243" x="974" y="-129" width="545.405" height="804.973" filterUnits="userSpaceOnUse" color-interpolation-filters="sRGB">
<feFlood flood-opacity="0" result="BackgroundImageFix"/>
<feBlend mode="normal" in="SourceGraphic" in2="BackgroundImageFix" result="shape"/>
<feGaussianBlur stdDeviation="40" result="effect1_foregroundBlur_4167_243"/>
</filter>
<filter id="filter5_f_4167_243" x="-208.649" y="175.578" width="805.011" height="554.374" filterUnits="userSpaceOnUse" color-interpolation-filters="sRGB">
<feFlood flood-opacity="0" result="BackgroundImageFix"/>
<feBlend mode="normal" in="SourceGraphic" in2="BackgroundImageFix" result="shape"/>
<feGaussianBlur stdDeviation="40" result="effect1_foregroundBlur_4167_243"/>
</filter>
<filter id="filter6_f_4167_243" x="-133" y="448" width="924" height="437.5" filterUnits="userSpaceOnUse" color-interpolation-filters="sRGB">
<feFlood flood-opacity="0" result="BackgroundImageFix"/>
<feBlend mode="normal" in="SourceGraphic" in2="BackgroundImageFix" result="shape"/>
<feGaussianBlur stdDeviation="40" result="effect1_foregroundBlur_4167_243"/>
</filter>
<filter id="filter7_f_4167_243" x="448.487" y="16.7622" width="1139.97" height="846.509" filterUnits="userSpaceOnUse" color-interpolation-filters="sRGB">
<feFlood flood-opacity="0" result="BackgroundImageFix"/>
<feBlend mode="normal" in="SourceGraphic" in2="BackgroundImageFix" result="shape"/>
<feGaussianBlur stdDeviation="40" result="effect1_foregroundBlur_4167_243"/>
</filter>
<filter id="filter8_f_4167_243" x="-85" y="-85" width="1506" height="662" filterUnits="userSpaceOnUse" color-interpolation-filters="sRGB">
<feFlood flood-opacity="0" result="BackgroundImageFix"/>
<feBlend mode="normal" in="SourceGraphic" in2="BackgroundImageFix" result="shape"/>
<feGaussianBlur stdDeviation="42.5" result="effect1_foregroundBlur_4167_243"/>
</filter>
<linearGradient id="paint0_linear_4167_243" x1="668" y1="264.547" x2="668" y2="492" gradientUnits="userSpaceOnUse">
<stop stop-color="#080C17"/>
<stop offset="1" stop-color="#111624"/>
</linearGradient>
<linearGradient id="paint1_linear_4167_243" x1="508.5" y1="156.5" x2="668" y2="492" gradientUnits="userSpaceOnUse">
<stop stop-color="white" stop-opacity="0"/>
<stop offset="1" stop-color="white"/>
</linearGradient>
<linearGradient id="paint2_linear_4167_243" x1="508.5" y1="156.5" x2="668" y2="492" gradientUnits="userSpaceOnUse">
<stop stop-color="white" stop-opacity="0"/>
<stop offset="1" stop-color="white"/>
</linearGradient>
<clipPath id="clip0_4167_243">
<rect width="1336" height="492" rx="24" fill="white"/>
</clipPath>
</defs>
</svg>
