<svg width="2438" height="938" viewBox="0 0 2438 938" fill="none" xmlns="http://www.w3.org/2000/svg">
<g opacity="0.5">
<mask id="mask0_4340_7076" style="mask-type:alpha" maskUnits="userSpaceOnUse" x="0" y="0" width="2439" height="939">
<g opacity="0.2">
<g opacity="0.3">
<path opacity="0.3" d="M2380.47 737.305H2438V937.998H2380.47V737.305Z" fill="url(#paint0_linear_4340_7076)"/>
<path opacity="0.3" d="M2295.31 234.207H2352.84V937.999H2295.31V234.207Z" fill="url(#paint1_linear_4340_7076)"/>
<path opacity="0.3" d="M2210.48 530.375H2268.01V937.608H2210.48V530.375Z" fill="url(#paint2_linear_4340_7076)"/>
<path opacity="0.3" d="M2125.32 325.398H2182.85V938.001H2125.32V325.398Z" fill="url(#paint3_linear_4340_7076)"/>
<path opacity="0.3" d="M2040.49 565.84H2098.02V937.61H2040.49V565.84Z" fill="url(#paint4_linear_4340_7076)"/>
<path opacity="0.3" d="M1955.35 364.367H2012.88V938.001H1955.35V364.367Z" fill="url(#paint5_linear_4340_7076)"/>
<path opacity="0.3" d="M1870.51 264.605H1928.04V937.612H1870.51V264.605Z" fill="url(#paint6_linear_4340_7076)"/>
<path opacity="0.3" d="M1785.36 68.5859H1842.89V937.999H1785.36V68.5859Z" fill="url(#paint7_linear_4340_7076)"/>
<path opacity="0.3" d="M1700.53 153.93H1758.06V937.61H1700.53V153.93Z" fill="url(#paint8_linear_4340_7076)"/>
<path opacity="0.3" d="M1615.37 305.523H1672.9V937.611H1615.37V305.523Z" fill="url(#paint9_linear_4340_7076)"/>
<path opacity="0.3" d="M1530.54 492.188H1588.07V937.611H1530.54V492.188Z" fill="url(#paint10_linear_4340_7076)"/>
<path opacity="0.3" d="M1445.38 641.832H1502.91V937.612H1445.38V641.832Z" fill="url(#paint11_linear_4340_7076)"/>
<path opacity="0.3" d="M1360.22 461.789H1417.75V937.609H1360.22V461.789Z" fill="url(#paint12_linear_4340_7076)"/>
<path opacity="0.3" d="M1275.39 0H1332.92V938H1275.39V0Z" fill="url(#paint13_linear_4340_7076)"/>
<path opacity="0.3" d="M1190.23 108.336H1247.76V937.61H1190.23V108.336Z" fill="url(#paint14_linear_4340_7076)"/>
<path opacity="0.3" d="M1105.4 407.621H1162.93V937.608H1105.4V407.621Z" fill="url(#paint15_linear_4340_7076)"/>
<path opacity="0.3" d="M1020.25 806.672H1077.78V938H1020.25V806.672Z" fill="url(#paint16_linear_4340_7076)"/>
<path opacity="0.3" d="M935.422 672.617H992.951V937.611H935.422V672.617Z" fill="url(#paint17_linear_4340_7076)"/>
<path opacity="0.3" d="M850.264 430.613H907.793V937.609H850.264V430.613Z" fill="url(#paint18_linear_4340_7076)"/>
<path opacity="0.3" d="M765.424 132.105H822.953V937.608H765.424V132.105Z" fill="url(#paint19_linear_4340_7076)"/>
<path opacity="0.3" d="M680.281 383.852H737.81V938H680.281V383.852Z" fill="url(#paint20_linear_4340_7076)"/>
<path opacity="0.3" d="M595.445 479.328H652.974V938.001H595.445V479.328Z" fill="url(#paint21_linear_4340_7076)"/>
<path opacity="0.3" d="M510.286 325.398H567.815V938.001H510.286V325.398Z" fill="url(#paint22_linear_4340_7076)"/>
<path opacity="0.3" d="M425.457 591.949H482.987V937.61H425.457V591.949Z" fill="url(#paint23_linear_4340_7076)"/>
<path opacity="0.3" d="M340.303 734.188H397.833V937.609H340.303V734.188Z" fill="url(#paint24_linear_4340_7076)"/>
<path opacity="0.3" d="M255.475 453.219H313.004V938.001H255.475V453.219Z" fill="url(#paint25_linear_4340_7076)"/>
<path opacity="0.3" d="M170.309 162.504H227.838V937.61H170.309V162.504Z" fill="url(#paint26_linear_4340_7076)"/>
<path opacity="0.3" d="M85.4797 621.566H143.009V937.61H85.4797V621.566Z" fill="url(#paint27_linear_4340_7076)"/>
<path opacity="0.3" d="M0.32592 479.328H57.8547V938.001H0.32592V479.328Z" fill="url(#paint28_linear_4340_7076)"/>
</g>
<g opacity="0.8">
<path opacity="0.8" d="M2403.22 627.805H2438V937.613H2403.22V627.805Z" fill="url(#paint29_linear_4340_7076)"/>
<path opacity="0.8" d="M2351.87 817.586H2386.65V937.613H2351.87V817.586Z" fill="url(#paint30_linear_4340_7076)"/>
<path opacity="0.8" d="M2300.84 732.633H2335.61V938.003H2300.84V732.633Z" fill="url(#paint31_linear_4340_7076)"/>
<path opacity="0.8" d="M2249.81 634.039H2284.59V938.002H2249.81V634.039Z" fill="url(#paint32_linear_4340_7076)"/>
<path opacity="0.8" d="M2198.78 693.66H2233.55V937.61H2198.78V693.66Z" fill="url(#paint33_linear_4340_7076)"/>
<path opacity="0.8" d="M2147.42 570.906H2182.2V938.001H2147.42V570.906Z" fill="url(#paint34_linear_4340_7076)"/>
<path opacity="0.8" d="M2096.4 736.137H2131.18V937.61H2096.4V736.137Z" fill="url(#paint35_linear_4340_7076)"/>
<path opacity="0.8" d="M2045.37 416.977H2080.14V937.611H2045.37V416.977Z" fill="url(#paint36_linear_4340_7076)"/>
<path opacity="0.8" d="M1994.01 612.215H2028.79V937.611H1994.01V612.215Z" fill="url(#paint37_linear_4340_7076)"/>
<path opacity="0.8" d="M1942.99 817.586H1977.77V937.613H1942.99V817.586Z" fill="url(#paint38_linear_4340_7076)"/>
<path opacity="0.8" d="M1891.96 516.348H1926.73V937.999H1891.96V516.348Z" fill="url(#paint39_linear_4340_7076)"/>
<path opacity="0.8" d="M1840.6 693.66H1875.38V937.61H1840.6V693.66Z" fill="url(#paint40_linear_4340_7076)"/>
<path opacity="0.8" d="M1789.58 570.906H1824.36V938.001H1789.58V570.906Z" fill="url(#paint41_linear_4340_7076)"/>
<path opacity="0.8" d="M1738.55 715.094H1773.32V938H1738.55V715.094Z" fill="url(#paint42_linear_4340_7076)"/>
<path opacity="0.8" d="M1687.19 594.289H1721.97V938.002H1687.19V594.289Z" fill="url(#paint43_linear_4340_7076)"/>
<path opacity="0.8" d="M1636.17 534.664H1670.95V938H1636.17V534.664Z" fill="url(#paint44_linear_4340_7076)"/>
<path opacity="0.8" d="M1585.14 416.977H1619.91V937.611H1585.14V416.977Z" fill="url(#paint45_linear_4340_7076)"/>
<path opacity="0.8" d="M1534.11 468.027H1568.89V937.612H1534.11V468.027Z" fill="url(#paint46_linear_4340_7076)"/>
<path opacity="0.8" d="M1482.76 559.215H1517.54V938H1482.76V559.215Z" fill="url(#paint47_linear_4340_7076)"/>
<path opacity="0.8" d="M1431.73 670.668H1466.51V937.61H1431.73V670.668Z" fill="url(#paint48_linear_4340_7076)"/>
<path opacity="0.8" d="M1380.7 760.301H1415.48V937.613H1380.7V760.301Z" fill="url(#paint49_linear_4340_7076)"/>
<path opacity="0.8" d="M1329.35 652.742H1364.13V938H1329.35V652.742Z" fill="url(#paint50_linear_4340_7076)"/>
<path opacity="0.8" d="M1278.32 376.059H1313.1V938.001H1278.32V376.059Z" fill="url(#paint51_linear_4340_7076)"/>
<path opacity="0.8" d="M1227.28 440.75H1262.06V937.613H1227.28V440.75Z" fill="url(#paint52_linear_4340_7076)"/>
<path opacity="0.8" d="M1175.93 620.008H1210.71V937.611H1175.93V620.008Z" fill="url(#paint53_linear_4340_7076)"/>
<path opacity="0.8" d="M1124.9 859.281H1159.68V938H1124.9V859.281Z" fill="url(#paint54_linear_4340_7076)"/>
<path opacity="0.8" d="M1073.89 779.004H1108.66V937.611H1073.89V779.004Z" fill="url(#paint55_linear_4340_7076)"/>
<path opacity="0.8" d="M1022.85 634.039H1057.62V938.002H1022.85V634.039Z" fill="url(#paint56_linear_4340_7076)"/>
<path opacity="0.8" d="M971.493 455.168H1006.27V937.612H971.493V455.168Z" fill="url(#paint57_linear_4340_7076)"/>
<path opacity="0.8" d="M920.464 605.98H955.242V938.002H920.464V605.98Z" fill="url(#paint58_linear_4340_7076)"/>
<path opacity="0.8" d="M869.44 662.875H904.217V937.611H869.44V662.875Z" fill="url(#paint59_linear_4340_7076)"/>
<path opacity="0.8" d="M818.086 570.906H852.864V938.001H818.086V570.906Z" fill="url(#paint60_linear_4340_7076)"/>
<path opacity="0.8" d="M767.054 730.684H801.832V938.002H767.054V730.684Z" fill="url(#paint61_linear_4340_7076)"/>
<path opacity="0.8" d="M716.03 815.637H750.807V937.612H716.03V815.637Z" fill="url(#paint62_linear_4340_7076)"/>
<path opacity="0.8" d="M664.676 647.289H699.454V937.613H664.676V647.289Z" fill="url(#paint63_linear_4340_7076)"/>
<path opacity="0.8" d="M613.652 473.484H648.429V938.003H613.652V473.484Z" fill="url(#paint64_linear_4340_7076)"/>
<path opacity="0.8" d="M562.62 748.609H597.397V938.002H562.62V748.609Z" fill="url(#paint65_linear_4340_7076)"/>
<path opacity="0.8" d="M511.266 662.875H546.043V937.611H511.266V662.875Z" fill="url(#paint66_linear_4340_7076)"/>
<path opacity="0.8" d="M460.23 598.188H495.008V938.003H460.23V598.188Z" fill="url(#paint67_linear_4340_7076)"/>
<path opacity="0.8" d="M409.21 416.977H443.987V937.611H409.21V416.977Z" fill="url(#paint68_linear_4340_7076)"/>
<path opacity="0.8" d="M358.174 670.668H392.951V937.61H358.174V670.668Z" fill="url(#paint69_linear_4340_7076)"/>
<path opacity="0.8" d="M306.82 582.598H341.597V938.001H306.82V582.598Z" fill="url(#paint70_linear_4340_7076)"/>
<path opacity="0.8" d="M255.8 792.645H290.577V937.612H255.8V792.645Z" fill="url(#paint71_linear_4340_7076)"/>
<path opacity="0.8" d="M204.764 716.652H239.541V937.61H204.764V716.652Z" fill="url(#paint72_linear_4340_7076)"/>
<path opacity="0.8" d="M153.41 614.941H188.187V937.61H153.41V614.941Z" fill="url(#paint73_linear_4340_7076)"/>
<path opacity="0.8" d="M102.386 416.977H137.163V937.611H102.386V416.977Z" fill="url(#paint74_linear_4340_7076)"/>
<path opacity="0.8" d="M51.3532 652.742H86.1309V938H51.3532V652.742Z" fill="url(#paint75_linear_4340_7076)"/>
<path opacity="0.8" d="M-8.01086e-05 575.973H34.7773V937.611H-8.01086e-05V575.973Z" fill="url(#paint76_linear_4340_7076)"/>
</g>
</g>
</mask>
<g mask="url(#mask0_4340_7076)">
<rect width="2244.24" height="1221" transform="matrix(-1 0 0 1 2067.3 139)" fill="url(#paint77_linear_4340_7076)"/>
</g>
</g>
<defs>
<linearGradient id="paint0_linear_4340_7076" x1="2409.1" y1="4.2744" x2="2409.1" y2="973.441" gradientUnits="userSpaceOnUse">
<stop stop-color="white"/>
<stop offset="1" stop-color="white" stop-opacity="0.2"/>
</linearGradient>
<linearGradient id="paint1_linear_4340_7076" x1="2324.1" y1="4.27509" x2="2324.1" y2="973.442" gradientUnits="userSpaceOnUse">
<stop stop-color="white"/>
<stop offset="1" stop-color="white" stop-opacity="0.2"/>
</linearGradient>
<linearGradient id="paint2_linear_4340_7076" x1="2239.1" y1="4.27133" x2="2239.1" y2="973.437" gradientUnits="userSpaceOnUse">
<stop stop-color="white"/>
<stop offset="1" stop-color="white" stop-opacity="0.2"/>
</linearGradient>
<linearGradient id="paint3_linear_4340_7076" x1="2154.09" y1="4.27444" x2="2154.09" y2="973.446" gradientUnits="userSpaceOnUse">
<stop stop-color="white"/>
<stop offset="1" stop-color="white" stop-opacity="0.2"/>
</linearGradient>
<linearGradient id="paint4_linear_4340_7076" x1="2069.09" y1="4.27816" x2="2069.09" y2="973.442" gradientUnits="userSpaceOnUse">
<stop stop-color="white"/>
<stop offset="1" stop-color="white" stop-opacity="0.2"/>
</linearGradient>
<linearGradient id="paint5_linear_4340_7076" x1="1984.1" y1="4.27735" x2="1984.1" y2="973.444" gradientUnits="userSpaceOnUse">
<stop stop-color="white"/>
<stop offset="1" stop-color="white" stop-opacity="0.2"/>
</linearGradient>
<linearGradient id="paint6_linear_4340_7076" x1="1899.09" y1="4.27487" x2="1899.09" y2="973.444" gradientUnits="userSpaceOnUse">
<stop stop-color="white"/>
<stop offset="1" stop-color="white" stop-opacity="0.2"/>
</linearGradient>
<linearGradient id="paint7_linear_4340_7076" x1="1814.09" y1="4.27391" x2="1814.09" y2="973.44" gradientUnits="userSpaceOnUse">
<stop stop-color="white"/>
<stop offset="1" stop-color="white" stop-opacity="0.2"/>
</linearGradient>
<linearGradient id="paint8_linear_4340_7076" x1="1729.09" y1="4.27488" x2="1729.09" y2="973.445" gradientUnits="userSpaceOnUse">
<stop stop-color="white"/>
<stop offset="1" stop-color="white" stop-opacity="0.2"/>
</linearGradient>
<linearGradient id="paint9_linear_4340_7076" x1="1644.09" y1="4.28439" x2="1644.09" y2="973.444" gradientUnits="userSpaceOnUse">
<stop stop-color="white"/>
<stop offset="1" stop-color="white" stop-opacity="0.2"/>
</linearGradient>
<linearGradient id="paint10_linear_4340_7076" x1="1559.09" y1="4.27945" x2="1559.09" y2="973.449" gradientUnits="userSpaceOnUse">
<stop stop-color="white"/>
<stop offset="1" stop-color="white" stop-opacity="0.2"/>
</linearGradient>
<linearGradient id="paint11_linear_4340_7076" x1="1474.09" y1="4.27899" x2="1474.09" y2="973.451" gradientUnits="userSpaceOnUse">
<stop stop-color="white"/>
<stop offset="1" stop-color="white" stop-opacity="0.2"/>
</linearGradient>
<linearGradient id="paint12_linear_4340_7076" x1="1389.08" y1="4.28263" x2="1389.08" y2="973.449" gradientUnits="userSpaceOnUse">
<stop stop-color="white"/>
<stop offset="1" stop-color="white" stop-opacity="0.2"/>
</linearGradient>
<linearGradient id="paint13_linear_4340_7076" x1="1304.08" y1="4.28238" x2="1304.08" y2="973.449" gradientUnits="userSpaceOnUse">
<stop stop-color="white"/>
<stop offset="1" stop-color="white" stop-opacity="0.2"/>
</linearGradient>
<linearGradient id="paint14_linear_4340_7076" x1="1219.07" y1="4.28031" x2="1219.07" y2="973.448" gradientUnits="userSpaceOnUse">
<stop stop-color="white"/>
<stop offset="1" stop-color="white" stop-opacity="0.2"/>
</linearGradient>
<linearGradient id="paint15_linear_4340_7076" x1="1134.08" y1="4.27816" x2="1134.08" y2="973.447" gradientUnits="userSpaceOnUse">
<stop stop-color="white"/>
<stop offset="1" stop-color="white" stop-opacity="0.2"/>
</linearGradient>
<linearGradient id="paint16_linear_4340_7076" x1="1049.09" y1="4.29779" x2="1049.09" y2="973.449" gradientUnits="userSpaceOnUse">
<stop stop-color="white"/>
<stop offset="1" stop-color="white" stop-opacity="0.2"/>
</linearGradient>
<linearGradient id="paint17_linear_4340_7076" x1="964.086" y1="4.29148" x2="964.086" y2="973.45" gradientUnits="userSpaceOnUse">
<stop stop-color="white"/>
<stop offset="1" stop-color="white" stop-opacity="0.2"/>
</linearGradient>
<linearGradient id="paint18_linear_4340_7076" x1="879.079" y1="4.28281" x2="879.079" y2="973.446" gradientUnits="userSpaceOnUse">
<stop stop-color="white"/>
<stop offset="1" stop-color="white" stop-opacity="0.2"/>
</linearGradient>
<linearGradient id="paint19_linear_4340_7076" x1="794.069" y1="4.27761" x2="794.069" y2="973.451" gradientUnits="userSpaceOnUse">
<stop stop-color="white"/>
<stop offset="1" stop-color="white" stop-opacity="0.2"/>
</linearGradient>
<linearGradient id="paint20_linear_4340_7076" x1="709.081" y1="4.28246" x2="709.081" y2="973.449" gradientUnits="userSpaceOnUse">
<stop stop-color="white"/>
<stop offset="1" stop-color="white" stop-opacity="0.2"/>
</linearGradient>
<linearGradient id="paint21_linear_4340_7076" x1="624.075" y1="4.28676" x2="624.075" y2="973.451" gradientUnits="userSpaceOnUse">
<stop stop-color="white"/>
<stop offset="1" stop-color="white" stop-opacity="0.2"/>
</linearGradient>
<linearGradient id="paint22_linear_4340_7076" x1="539.075" y1="4.28067" x2="539.075" y2="973.452" gradientUnits="userSpaceOnUse">
<stop stop-color="white"/>
<stop offset="1" stop-color="white" stop-opacity="0.2"/>
</linearGradient>
<linearGradient id="paint23_linear_4340_7076" x1="454.072" y1="4.28701" x2="454.072" y2="973.448" gradientUnits="userSpaceOnUse">
<stop stop-color="white"/>
<stop offset="1" stop-color="white" stop-opacity="0.2"/>
</linearGradient>
<linearGradient id="paint24_linear_4340_7076" x1="369.07" y1="4.29212" x2="369.07" y2="973.448" gradientUnits="userSpaceOnUse">
<stop stop-color="white"/>
<stop offset="1" stop-color="white" stop-opacity="0.2"/>
</linearGradient>
<linearGradient id="paint25_linear_4340_7076" x1="284.074" y1="4.28239" x2="284.074" y2="973.485" gradientUnits="userSpaceOnUse">
<stop stop-color="white"/>
<stop offset="1" stop-color="white" stop-opacity="0.2"/>
</linearGradient>
<linearGradient id="paint26_linear_4340_7076" x1="199.063" y1="4.27929" x2="199.063" y2="973.451" gradientUnits="userSpaceOnUse">
<stop stop-color="white"/>
<stop offset="1" stop-color="white" stop-opacity="0.2"/>
</linearGradient>
<linearGradient id="paint27_linear_4340_7076" x1="114.064" y1="4.28434" x2="114.064" y2="973.448" gradientUnits="userSpaceOnUse">
<stop stop-color="white"/>
<stop offset="1" stop-color="white" stop-opacity="0.2"/>
</linearGradient>
<linearGradient id="paint28_linear_4340_7076" x1="29.0682" y1="4.28676" x2="29.0682" y2="973.451" gradientUnits="userSpaceOnUse">
<stop stop-color="white"/>
<stop offset="1" stop-color="white" stop-opacity="0.2"/>
</linearGradient>
<linearGradient id="paint29_linear_4340_7076" x1="2420.58" y1="378.561" x2="2420.58" y2="959.133" gradientUnits="userSpaceOnUse">
<stop stop-color="white"/>
<stop offset="1" stop-color="white" stop-opacity="0.2"/>
</linearGradient>
<linearGradient id="paint30_linear_4340_7076" x1="2369.46" y1="378.56" x2="2369.46" y2="959.133" gradientUnits="userSpaceOnUse">
<stop stop-color="white"/>
<stop offset="1" stop-color="white" stop-opacity="0.2"/>
</linearGradient>
<linearGradient id="paint31_linear_4340_7076" x1="2318.32" y1="378.561" x2="2318.32" y2="959.133" gradientUnits="userSpaceOnUse">
<stop stop-color="white"/>
<stop offset="1" stop-color="white" stop-opacity="0.2"/>
</linearGradient>
<linearGradient id="paint32_linear_4340_7076" x1="2267.2" y1="378.56" x2="2267.2" y2="959.133" gradientUnits="userSpaceOnUse">
<stop stop-color="white"/>
<stop offset="1" stop-color="white" stop-opacity="0.2"/>
</linearGradient>
<linearGradient id="paint33_linear_4340_7076" x1="2216.07" y1="378.558" x2="2216.07" y2="959.129" gradientUnits="userSpaceOnUse">
<stop stop-color="white"/>
<stop offset="1" stop-color="white" stop-opacity="0.2"/>
</linearGradient>
<linearGradient id="paint34_linear_4340_7076" x1="2164.94" y1="378.558" x2="2164.94" y2="959.133" gradientUnits="userSpaceOnUse">
<stop stop-color="white"/>
<stop offset="1" stop-color="white" stop-opacity="0.2"/>
</linearGradient>
<linearGradient id="paint35_linear_4340_7076" x1="2113.82" y1="378.558" x2="2113.82" y2="959.131" gradientUnits="userSpaceOnUse">
<stop stop-color="white"/>
<stop offset="1" stop-color="white" stop-opacity="0.2"/>
</linearGradient>
<linearGradient id="paint36_linear_4340_7076" x1="2062.68" y1="378.559" x2="2062.68" y2="959.132" gradientUnits="userSpaceOnUse">
<stop stop-color="white"/>
<stop offset="1" stop-color="white" stop-opacity="0.2"/>
</linearGradient>
<linearGradient id="paint37_linear_4340_7076" x1="2011.56" y1="378.559" x2="2011.56" y2="959.133" gradientUnits="userSpaceOnUse">
<stop stop-color="white"/>
<stop offset="1" stop-color="white" stop-opacity="0.2"/>
</linearGradient>
<linearGradient id="paint38_linear_4340_7076" x1="1960.44" y1="378.56" x2="1960.44" y2="959.133" gradientUnits="userSpaceOnUse">
<stop stop-color="white"/>
<stop offset="1" stop-color="white" stop-opacity="0.2"/>
</linearGradient>
<linearGradient id="paint39_linear_4340_7076" x1="1909.3" y1="378.557" x2="1909.3" y2="959.13" gradientUnits="userSpaceOnUse">
<stop stop-color="white"/>
<stop offset="1" stop-color="white" stop-opacity="0.2"/>
</linearGradient>
<linearGradient id="paint40_linear_4340_7076" x1="1858.17" y1="378.558" x2="1858.17" y2="959.129" gradientUnits="userSpaceOnUse">
<stop stop-color="white"/>
<stop offset="1" stop-color="white" stop-opacity="0.2"/>
</linearGradient>
<linearGradient id="paint41_linear_4340_7076" x1="1807.05" y1="378.558" x2="1807.05" y2="959.133" gradientUnits="userSpaceOnUse">
<stop stop-color="white"/>
<stop offset="1" stop-color="white" stop-opacity="0.2"/>
</linearGradient>
<linearGradient id="paint42_linear_4340_7076" x1="1755.92" y1="378.557" x2="1755.92" y2="959.131" gradientUnits="userSpaceOnUse">
<stop stop-color="white"/>
<stop offset="1" stop-color="white" stop-opacity="0.2"/>
</linearGradient>
<linearGradient id="paint43_linear_4340_7076" x1="1704.79" y1="378.56" x2="1704.79" y2="959.133" gradientUnits="userSpaceOnUse">
<stop stop-color="white"/>
<stop offset="1" stop-color="white" stop-opacity="0.2"/>
</linearGradient>
<linearGradient id="paint44_linear_4340_7076" x1="1653.67" y1="378.558" x2="1653.67" y2="959.131" gradientUnits="userSpaceOnUse">
<stop stop-color="white"/>
<stop offset="1" stop-color="white" stop-opacity="0.2"/>
</linearGradient>
<linearGradient id="paint45_linear_4340_7076" x1="1602.54" y1="378.559" x2="1602.54" y2="959.132" gradientUnits="userSpaceOnUse">
<stop stop-color="white"/>
<stop offset="1" stop-color="white" stop-opacity="0.2"/>
</linearGradient>
<linearGradient id="paint46_linear_4340_7076" x1="1551.41" y1="378.56" x2="1551.41" y2="959.135" gradientUnits="userSpaceOnUse">
<stop stop-color="white"/>
<stop offset="1" stop-color="white" stop-opacity="0.2"/>
</linearGradient>
<linearGradient id="paint47_linear_4340_7076" x1="1500.29" y1="378.564" x2="1500.29" y2="959.131" gradientUnits="userSpaceOnUse">
<stop stop-color="white"/>
<stop offset="1" stop-color="white" stop-opacity="0.2"/>
</linearGradient>
<linearGradient id="paint48_linear_4340_7076" x1="1449.16" y1="378.562" x2="1449.16" y2="959.135" gradientUnits="userSpaceOnUse">
<stop stop-color="white"/>
<stop offset="1" stop-color="white" stop-opacity="0.2"/>
</linearGradient>
<linearGradient id="paint49_linear_4340_7076" x1="1398.03" y1="378.565" x2="1398.03" y2="959.138" gradientUnits="userSpaceOnUse">
<stop stop-color="white"/>
<stop offset="1" stop-color="white" stop-opacity="0.2"/>
</linearGradient>
<linearGradient id="paint50_linear_4340_7076" x1="1346.9" y1="378.562" x2="1346.9" y2="959.136" gradientUnits="userSpaceOnUse">
<stop stop-color="white"/>
<stop offset="1" stop-color="white" stop-opacity="0.2"/>
</linearGradient>
<linearGradient id="paint51_linear_4340_7076" x1="1295.78" y1="378.563" x2="1295.78" y2="959.136" gradientUnits="userSpaceOnUse">
<stop stop-color="white"/>
<stop offset="1" stop-color="white" stop-opacity="0.2"/>
</linearGradient>
<linearGradient id="paint52_linear_4340_7076" x1="1244.64" y1="378.565" x2="1244.64" y2="959.138" gradientUnits="userSpaceOnUse">
<stop stop-color="white"/>
<stop offset="1" stop-color="white" stop-opacity="0.2"/>
</linearGradient>
<linearGradient id="paint53_linear_4340_7076" x1="1193.51" y1="378.562" x2="1193.51" y2="959.135" gradientUnits="userSpaceOnUse">
<stop stop-color="white"/>
<stop offset="1" stop-color="white" stop-opacity="0.2"/>
</linearGradient>
<linearGradient id="paint54_linear_4340_7076" x1="1142.39" y1="378.563" x2="1142.39" y2="959.135" gradientUnits="userSpaceOnUse">
<stop stop-color="white"/>
<stop offset="1" stop-color="white" stop-opacity="0.2"/>
</linearGradient>
<linearGradient id="paint55_linear_4340_7076" x1="1091.27" y1="378.562" x2="1091.27" y2="959.135" gradientUnits="userSpaceOnUse">
<stop stop-color="white"/>
<stop offset="1" stop-color="white" stop-opacity="0.2"/>
</linearGradient>
<linearGradient id="paint56_linear_4340_7076" x1="1040.13" y1="378.564" x2="1040.13" y2="959.137" gradientUnits="userSpaceOnUse">
<stop stop-color="white"/>
<stop offset="1" stop-color="white" stop-opacity="0.2"/>
</linearGradient>
<linearGradient id="paint57_linear_4340_7076" x1="989.004" y1="378.564" x2="989.004" y2="959.14" gradientUnits="userSpaceOnUse">
<stop stop-color="white"/>
<stop offset="1" stop-color="white" stop-opacity="0.2"/>
</linearGradient>
<linearGradient id="paint58_linear_4340_7076" x1="937.877" y1="378.564" x2="937.877" y2="959.137" gradientUnits="userSpaceOnUse">
<stop stop-color="white"/>
<stop offset="1" stop-color="white" stop-opacity="0.2"/>
</linearGradient>
<linearGradient id="paint59_linear_4340_7076" x1="886.754" y1="378.563" x2="886.754" y2="959.136" gradientUnits="userSpaceOnUse">
<stop stop-color="white"/>
<stop offset="1" stop-color="white" stop-opacity="0.2"/>
</linearGradient>
<linearGradient id="paint60_linear_4340_7076" x1="835.626" y1="378.562" x2="835.626" y2="959.136" gradientUnits="userSpaceOnUse">
<stop stop-color="white"/>
<stop offset="1" stop-color="white" stop-opacity="0.2"/>
</linearGradient>
<linearGradient id="paint61_linear_4340_7076" x1="784.493" y1="378.564" x2="784.493" y2="959.137" gradientUnits="userSpaceOnUse">
<stop stop-color="white"/>
<stop offset="1" stop-color="white" stop-opacity="0.2"/>
</linearGradient>
<linearGradient id="paint62_linear_4340_7076" x1="733.37" y1="378.563" x2="733.37" y2="959.137" gradientUnits="userSpaceOnUse">
<stop stop-color="white"/>
<stop offset="1" stop-color="white" stop-opacity="0.2"/>
</linearGradient>
<linearGradient id="paint63_linear_4340_7076" x1="682.244" y1="378.564" x2="682.244" y2="959.159" gradientUnits="userSpaceOnUse">
<stop stop-color="white"/>
<stop offset="1" stop-color="white" stop-opacity="0.2"/>
</linearGradient>
<linearGradient id="paint64_linear_4340_7076" x1="631.119" y1="378.564" x2="631.119" y2="959.139" gradientUnits="userSpaceOnUse">
<stop stop-color="white"/>
<stop offset="1" stop-color="white" stop-opacity="0.2"/>
</linearGradient>
<linearGradient id="paint65_linear_4340_7076" x1="579.988" y1="378.563" x2="579.988" y2="959.136" gradientUnits="userSpaceOnUse">
<stop stop-color="white"/>
<stop offset="1" stop-color="white" stop-opacity="0.2"/>
</linearGradient>
<linearGradient id="paint66_linear_4340_7076" x1="528.862" y1="378.563" x2="528.862" y2="959.136" gradientUnits="userSpaceOnUse">
<stop stop-color="white"/>
<stop offset="1" stop-color="white" stop-opacity="0.2"/>
</linearGradient>
<linearGradient id="paint67_linear_4340_7076" x1="477.725" y1="378.565" x2="477.725" y2="959.139" gradientUnits="userSpaceOnUse">
<stop stop-color="white"/>
<stop offset="1" stop-color="white" stop-opacity="0.2"/>
</linearGradient>
<linearGradient id="paint68_linear_4340_7076" x1="426.606" y1="378.563" x2="426.606" y2="959.135" gradientUnits="userSpaceOnUse">
<stop stop-color="white"/>
<stop offset="1" stop-color="white" stop-opacity="0.2"/>
</linearGradient>
<linearGradient id="paint69_linear_4340_7076" x1="375.472" y1="378.562" x2="375.472" y2="959.135" gradientUnits="userSpaceOnUse">
<stop stop-color="white"/>
<stop offset="1" stop-color="white" stop-opacity="0.2"/>
</linearGradient>
<linearGradient id="paint70_linear_4340_7076" x1="324.343" y1="378.563" x2="324.343" y2="959.137" gradientUnits="userSpaceOnUse">
<stop stop-color="white"/>
<stop offset="1" stop-color="white" stop-opacity="0.2"/>
</linearGradient>
<linearGradient id="paint71_linear_4340_7076" x1="273.224" y1="378.563" x2="273.224" y2="959.165" gradientUnits="userSpaceOnUse">
<stop stop-color="white"/>
<stop offset="1" stop-color="white" stop-opacity="0.2"/>
</linearGradient>
<linearGradient id="paint72_linear_4340_7076" x1="222.089" y1="378.562" x2="222.089" y2="959.136" gradientUnits="userSpaceOnUse">
<stop stop-color="white"/>
<stop offset="1" stop-color="white" stop-opacity="0.2"/>
</linearGradient>
<linearGradient id="paint73_linear_4340_7076" x1="170.961" y1="378.562" x2="170.961" y2="959.136" gradientUnits="userSpaceOnUse">
<stop stop-color="white"/>
<stop offset="1" stop-color="white" stop-opacity="0.2"/>
</linearGradient>
<linearGradient id="paint74_linear_4340_7076" x1="119.837" y1="378.563" x2="119.837" y2="959.135" gradientUnits="userSpaceOnUse">
<stop stop-color="white"/>
<stop offset="1" stop-color="white" stop-opacity="0.2"/>
</linearGradient>
<linearGradient id="paint75_linear_4340_7076" x1="68.7063" y1="378.562" x2="68.7063" y2="959.136" gradientUnits="userSpaceOnUse">
<stop stop-color="white"/>
<stop offset="1" stop-color="white" stop-opacity="0.2"/>
</linearGradient>
<linearGradient id="paint76_linear_4340_7076" x1="17.5788" y1="378.562" x2="17.5788" y2="959.134" gradientUnits="userSpaceOnUse">
<stop stop-color="white"/>
<stop offset="1" stop-color="white" stop-opacity="0.2"/>
</linearGradient>
<linearGradient id="paint77_linear_4340_7076" x1="2048.8" y1="144" x2="417.152" y2="589.683" gradientUnits="userSpaceOnUse">
<stop offset="0.162634" stop-color="#0E1F5F"/>
<stop offset="0.275052" stop-color="#A5B8FF"/>
<stop offset="0.438868" stop-color="#5367B3" stop-opacity="0.7"/>
<stop offset="0.585265" stop-color="#556CC3" stop-opacity="0.26"/>
<stop offset="1" stop-color="#787878" stop-opacity="0"/>
</linearGradient>
</defs>
</svg>
