<svg width="2439" height="938" viewBox="0 0 2439 938" fill="none" xmlns="http://www.w3.org/2000/svg">
<g opacity="0.5">
<mask id="mask0_4340_6357" style="mask-type:alpha" maskUnits="userSpaceOnUse" x="-1" y="0" width="2440" height="939">
<g opacity="0.4">
<g opacity="0.3">
<path opacity="0.3" d="M57.5484 737.306H-6.10352e-05V938H57.5484V737.306Z" fill="url(#paint0_linear_4340_6357)"/>
<path opacity="0.3" d="M142.734 234.208H85.185V938H142.734V234.208Z" fill="url(#paint1_linear_4340_6357)"/>
<path opacity="0.3" d="M227.593 530.377H170.044V937.61H227.593V530.377Z" fill="url(#paint2_linear_4340_6357)"/>
<path opacity="0.3" d="M312.778 325.397H255.229V938H312.778V325.397Z" fill="url(#paint3_linear_4340_6357)"/>
<path opacity="0.3" d="M397.637 565.839H340.089V937.61H397.637V565.839Z" fill="url(#paint4_linear_4340_6357)"/>
<path opacity="0.3" d="M482.822 364.366H425.274V938H482.822V364.366Z" fill="url(#paint5_linear_4340_6357)"/>
<path opacity="0.3" d="M567.682 264.604H510.133V937.61H567.682V264.604Z" fill="url(#paint6_linear_4340_6357)"/>
<path opacity="0.3" d="M652.866 68.5868H595.318V938H652.866V68.5868Z" fill="url(#paint7_linear_4340_6357)"/>
<path opacity="0.3" d="M737.726 153.93H680.178V937.61H737.726V153.93Z" fill="url(#paint8_linear_4340_6357)"/>
<path opacity="0.3" d="M822.911 305.522H765.363V937.61H822.911V305.522Z" fill="url(#paint9_linear_4340_6357)"/>
<path opacity="0.3" d="M907.771 492.187H850.222V937.61H907.771V492.187Z" fill="url(#paint10_linear_4340_6357)"/>
<path opacity="0.3" d="M992.956 641.83H935.407V937.61H992.956V641.83Z" fill="url(#paint11_linear_4340_6357)"/>
<path opacity="0.3" d="M1078.14 461.79H1020.59V937.61H1078.14V461.79Z" fill="url(#paint12_linear_4340_6357)"/>
<path opacity="0.3" d="M1163 0H1105.45V938H1163V0Z" fill="url(#paint13_linear_4340_6357)"/>
<path opacity="0.3" d="M1248.18 108.336H1190.64V937.61H1248.18V108.336Z" fill="url(#paint14_linear_4340_6357)"/>
<path opacity="0.3" d="M1333.04 407.622H1275.5V937.61H1333.04V407.622Z" fill="url(#paint15_linear_4340_6357)"/>
<path opacity="0.3" d="M1418.23 806.672H1360.68V938H1418.23V806.672Z" fill="url(#paint16_linear_4340_6357)"/>
<path opacity="0.3" d="M1503.09 672.616H1445.54V937.609H1503.09V672.616Z" fill="url(#paint17_linear_4340_6357)"/>
<path opacity="0.3" d="M1588.27 430.614H1530.73V937.61H1588.27V430.614Z" fill="url(#paint18_linear_4340_6357)"/>
<path opacity="0.3" d="M1673.13 132.107H1615.59V937.61H1673.13V132.107Z" fill="url(#paint19_linear_4340_6357)"/>
<path opacity="0.3" d="M1758.32 383.851H1700.77V938H1758.32V383.851Z" fill="url(#paint20_linear_4340_6357)"/>
<path opacity="0.3" d="M1843.18 479.326H1785.63V937.999H1843.18V479.326Z" fill="url(#paint21_linear_4340_6357)"/>
<path opacity="0.3" d="M1928.36 325.397H1870.81V938H1928.36V325.397Z" fill="url(#paint22_linear_4340_6357)"/>
<path opacity="0.3" d="M2013.22 591.949H1955.67V937.61H2013.22V591.949Z" fill="url(#paint23_linear_4340_6357)"/>
<path opacity="0.3" d="M2098.41 734.188H2040.86V937.61H2098.41V734.188Z" fill="url(#paint24_linear_4340_6357)"/>
<path opacity="0.3" d="M2183.27 453.217H2125.72V938H2183.27V453.217Z" fill="url(#paint25_linear_4340_6357)"/>
<path opacity="0.3" d="M2268.45 162.504H2210.9V937.61H2268.45V162.504Z" fill="url(#paint26_linear_4340_6357)"/>
<path opacity="0.3" d="M2353.31 621.566H2295.76V937.61H2353.31V621.566Z" fill="url(#paint27_linear_4340_6357)"/>
<path opacity="0.3" d="M2438.5 479.326H2380.95V937.999H2438.5V479.326Z" fill="url(#paint28_linear_4340_6357)"/>
</g>
<g opacity="0.8">
<path opacity="0.8" d="M34.7891 627.802H-0.00012207V937.61H34.7891V627.802Z" fill="url(#paint29_linear_4340_6357)"/>
<path opacity="0.8" d="M86.1603 817.584H51.3711V937.61H86.1603V817.584Z" fill="url(#paint30_linear_4340_6357)"/>
<path opacity="0.8" d="M137.206 732.629H102.417V938H137.206V732.629Z" fill="url(#paint31_linear_4340_6357)"/>
<path opacity="0.8" d="M188.252 634.037H153.463V938H188.252V634.037Z" fill="url(#paint32_linear_4340_6357)"/>
<path opacity="0.8" d="M239.298 693.66H204.509V937.61H239.298V693.66Z" fill="url(#paint33_linear_4340_6357)"/>
<path opacity="0.8" d="M290.669 570.906H255.879V938H290.669V570.906Z" fill="url(#paint34_linear_4340_6357)"/>
<path opacity="0.8" d="M341.715 736.137H306.925V937.61H341.715V736.137Z" fill="url(#paint35_linear_4340_6357)"/>
<path opacity="0.8" d="M392.76 416.975H357.971V937.61H392.76V416.975Z" fill="url(#paint36_linear_4340_6357)"/>
<path opacity="0.8" d="M444.131 612.213H409.342V937.61H444.131V612.213Z" fill="url(#paint37_linear_4340_6357)"/>
<path opacity="0.8" d="M495.177 817.584H460.388V937.61H495.177V817.584Z" fill="url(#paint38_linear_4340_6357)"/>
<path opacity="0.8" d="M546.223 516.348H511.434V938H546.223V516.348Z" fill="url(#paint39_linear_4340_6357)"/>
<path opacity="0.8" d="M597.594 693.66H562.805V937.61H597.594V693.66Z" fill="url(#paint40_linear_4340_6357)"/>
<path opacity="0.8" d="M648.64 570.906H613.851V938H648.64V570.906Z" fill="url(#paint41_linear_4340_6357)"/>
<path opacity="0.8" d="M699.686 715.093H664.896V938H699.686V715.093Z" fill="url(#paint42_linear_4340_6357)"/>
<path opacity="0.8" d="M751.057 594.288H716.268V938H751.057V594.288Z" fill="url(#paint43_linear_4340_6357)"/>
<path opacity="0.8" d="M802.103 534.664H767.313V938H802.103V534.664Z" fill="url(#paint44_linear_4340_6357)"/>
<path opacity="0.8" d="M853.148 416.975H818.359V937.61H853.148V416.975Z" fill="url(#paint45_linear_4340_6357)"/>
<path opacity="0.8" d="M904.194 468.026H869.405V937.61H904.194V468.026Z" fill="url(#paint46_linear_4340_6357)"/>
<path opacity="0.8" d="M955.566 559.215H920.776V938H955.566V559.215Z" fill="url(#paint47_linear_4340_6357)"/>
<path opacity="0.8" d="M1006.61 670.668H971.822V937.61H1006.61V670.668Z" fill="url(#paint48_linear_4340_6357)"/>
<path opacity="0.8" d="M1057.66 760.298H1022.87V937.61H1057.66V760.298Z" fill="url(#paint49_linear_4340_6357)"/>
<path opacity="0.8" d="M1109.03 652.742H1074.24V938H1109.03V652.742Z" fill="url(#paint50_linear_4340_6357)"/>
<path opacity="0.8" d="M1160.07 376.057H1125.28V938H1160.07V376.057Z" fill="url(#paint51_linear_4340_6357)"/>
<path opacity="0.8" d="M1211.12 440.747H1176.33V937.61H1211.12V440.747Z" fill="url(#paint52_linear_4340_6357)"/>
<path opacity="0.8" d="M1262.49 620.007H1227.7V937.61H1262.49V620.007Z" fill="url(#paint53_linear_4340_6357)"/>
<path opacity="0.8" d="M1313.54 859.281H1278.75V938H1313.54V859.281Z" fill="url(#paint54_linear_4340_6357)"/>
<path opacity="0.8" d="M1364.58 779.003H1329.79V937.61H1364.58V779.003Z" fill="url(#paint55_linear_4340_6357)"/>
<path opacity="0.8" d="M1415.63 634.037H1380.84V938H1415.63V634.037Z" fill="url(#paint56_linear_4340_6357)"/>
<path opacity="0.8" d="M1467 455.166H1432.21V937.61H1467V455.166Z" fill="url(#paint57_linear_4340_6357)"/>
<path opacity="0.8" d="M1518.04 605.978H1483.26V938H1518.04V605.978Z" fill="url(#paint58_linear_4340_6357)"/>
<path opacity="0.8" d="M1569.09 662.874H1534.3V937.61H1569.09V662.874Z" fill="url(#paint59_linear_4340_6357)"/>
<path opacity="0.8" d="M1620.46 570.906H1585.67V938H1620.46V570.906Z" fill="url(#paint60_linear_4340_6357)"/>
<path opacity="0.8" d="M1671.51 730.681H1636.72V938H1671.51V730.681Z" fill="url(#paint61_linear_4340_6357)"/>
<path opacity="0.8" d="M1722.55 815.635H1687.76V937.61H1722.55V815.635Z" fill="url(#paint62_linear_4340_6357)"/>
<path opacity="0.8" d="M1773.92 647.286H1739.14V937.61H1773.92V647.286Z" fill="url(#paint63_linear_4340_6357)"/>
<path opacity="0.8" d="M1824.97 473.482H1790.18V938H1824.97V473.482Z" fill="url(#paint64_linear_4340_6357)"/>
<path opacity="0.8" d="M1876.02 748.607H1841.23V938H1876.02V748.607Z" fill="url(#paint65_linear_4340_6357)"/>
<path opacity="0.8" d="M1927.39 662.874H1892.6V937.61H1927.39V662.874Z" fill="url(#paint66_linear_4340_6357)"/>
<path opacity="0.8" d="M1978.43 598.184H1943.64V938H1978.43V598.184Z" fill="url(#paint67_linear_4340_6357)"/>
<path opacity="0.8" d="M2029.48 416.975H1994.69V937.61H2029.48V416.975Z" fill="url(#paint68_linear_4340_6357)"/>
<path opacity="0.8" d="M2080.52 670.668H2045.74V937.61H2080.52V670.668Z" fill="url(#paint69_linear_4340_6357)"/>
<path opacity="0.8" d="M2131.9 582.597H2097.11V938H2131.9V582.597Z" fill="url(#paint70_linear_4340_6357)"/>
<path opacity="0.8" d="M2182.94 792.643H2148.15V937.61H2182.94V792.643Z" fill="url(#paint71_linear_4340_6357)"/>
<path opacity="0.8" d="M2233.99 716.652H2199.2V937.61H2233.99V716.652Z" fill="url(#paint72_linear_4340_6357)"/>
<path opacity="0.8" d="M2285.36 614.941H2250.57V937.61H2285.36V614.941Z" fill="url(#paint73_linear_4340_6357)"/>
<path opacity="0.8" d="M2336.4 416.975H2301.62V937.61H2336.4V416.975Z" fill="url(#paint74_linear_4340_6357)"/>
<path opacity="0.8" d="M2387.45 652.742H2352.66V938H2387.45V652.742Z" fill="url(#paint75_linear_4340_6357)"/>
<path opacity="0.8" d="M2438.82 575.972H2404.03V937.61H2438.82V575.972Z" fill="url(#paint76_linear_4340_6357)"/>
</g>
</g>
</mask>
<g mask="url(#mask0_4340_6357)">
<rect x="370.821" y="139" width="2245" height="1221" fill="url(#paint77_linear_4340_6357)"/>
</g>
</g>
<defs>
<linearGradient id="paint0_linear_4340_6357" x1="28.9114" y1="4.27562" x2="28.9114" y2="973.442" gradientUnits="userSpaceOnUse">
<stop stop-color="white"/>
<stop offset="1" stop-color="white" stop-opacity="0.2"/>
</linearGradient>
<linearGradient id="paint1_linear_4340_6357" x1="113.938" y1="4.27557" x2="113.938" y2="973.442" gradientUnits="userSpaceOnUse">
<stop stop-color="white"/>
<stop offset="1" stop-color="white" stop-opacity="0.2"/>
</linearGradient>
<linearGradient id="paint2_linear_4340_6357" x1="198.971" y1="4.27304" x2="198.971" y2="973.439" gradientUnits="userSpaceOnUse">
<stop stop-color="white"/>
<stop offset="1" stop-color="white" stop-opacity="0.2"/>
</linearGradient>
<linearGradient id="paint3_linear_4340_6357" x1="284.001" y1="4.27273" x2="284.001" y2="973.444" gradientUnits="userSpaceOnUse">
<stop stop-color="white"/>
<stop offset="1" stop-color="white" stop-opacity="0.2"/>
</linearGradient>
<linearGradient id="paint4_linear_4340_6357" x1="369.031" y1="4.27768" x2="369.031" y2="973.441" gradientUnits="userSpaceOnUse">
<stop stop-color="white"/>
<stop offset="1" stop-color="white" stop-opacity="0.2"/>
</linearGradient>
<linearGradient id="paint5_linear_4340_6357" x1="454.061" y1="4.27625" x2="454.061" y2="973.442" gradientUnits="userSpaceOnUse">
<stop stop-color="white"/>
<stop offset="1" stop-color="white" stop-opacity="0.2"/>
</linearGradient>
<linearGradient id="paint6_linear_4340_6357" x1="539.091" y1="4.2734" x2="539.091" y2="973.443" gradientUnits="userSpaceOnUse">
<stop stop-color="white"/>
<stop offset="1" stop-color="white" stop-opacity="0.2"/>
</linearGradient>
<linearGradient id="paint7_linear_4340_6357" x1="624.12" y1="4.27477" x2="624.12" y2="973.441" gradientUnits="userSpaceOnUse">
<stop stop-color="white"/>
<stop offset="1" stop-color="white" stop-opacity="0.2"/>
</linearGradient>
<linearGradient id="paint8_linear_4340_6357" x1="709.15" y1="4.27549" x2="709.15" y2="973.446" gradientUnits="userSpaceOnUse">
<stop stop-color="white"/>
<stop offset="1" stop-color="white" stop-opacity="0.2"/>
</linearGradient>
<linearGradient id="paint9_linear_4340_6357" x1="794.18" y1="4.28304" x2="794.18" y2="973.443" gradientUnits="userSpaceOnUse">
<stop stop-color="white"/>
<stop offset="1" stop-color="white" stop-opacity="0.2"/>
</linearGradient>
<linearGradient id="paint10_linear_4340_6357" x1="879.21" y1="4.27847" x2="879.21" y2="973.448" gradientUnits="userSpaceOnUse">
<stop stop-color="white"/>
<stop offset="1" stop-color="white" stop-opacity="0.2"/>
</linearGradient>
<linearGradient id="paint11_linear_4340_6357" x1="964.237" y1="4.27704" x2="964.237" y2="973.449" gradientUnits="userSpaceOnUse">
<stop stop-color="white"/>
<stop offset="1" stop-color="white" stop-opacity="0.2"/>
</linearGradient>
<linearGradient id="paint12_linear_4340_6357" x1="1049.27" y1="4.28385" x2="1049.27" y2="973.45" gradientUnits="userSpaceOnUse">
<stop stop-color="white"/>
<stop offset="1" stop-color="white" stop-opacity="0.2"/>
</linearGradient>
<linearGradient id="paint13_linear_4340_6357" x1="1134.3" y1="4.28238" x2="1134.3" y2="973.449" gradientUnits="userSpaceOnUse">
<stop stop-color="white"/>
<stop offset="1" stop-color="white" stop-opacity="0.2"/>
</linearGradient>
<linearGradient id="paint14_linear_4340_6357" x1="1219.33" y1="4.28007" x2="1219.33" y2="973.448" gradientUnits="userSpaceOnUse">
<stop stop-color="white"/>
<stop offset="1" stop-color="white" stop-opacity="0.2"/>
</linearGradient>
<linearGradient id="paint15_linear_4340_6357" x1="1304.36" y1="4.27938" x2="1304.36" y2="973.448" gradientUnits="userSpaceOnUse">
<stop stop-color="white"/>
<stop offset="1" stop-color="white" stop-opacity="0.2"/>
</linearGradient>
<linearGradient id="paint16_linear_4340_6357" x1="1389.39" y1="4.29779" x2="1389.39" y2="973.449" gradientUnits="userSpaceOnUse">
<stop stop-color="white"/>
<stop offset="1" stop-color="white" stop-opacity="0.2"/>
</linearGradient>
<linearGradient id="paint17_linear_4340_6357" x1="1474.42" y1="4.29001" x2="1474.42" y2="973.448" gradientUnits="userSpaceOnUse">
<stop stop-color="white"/>
<stop offset="1" stop-color="white" stop-opacity="0.2"/>
</linearGradient>
<linearGradient id="paint18_linear_4340_6357" x1="1559.45" y1="4.28378" x2="1559.45" y2="973.447" gradientUnits="userSpaceOnUse">
<stop stop-color="white"/>
<stop offset="1" stop-color="white" stop-opacity="0.2"/>
</linearGradient>
<linearGradient id="paint19_linear_4340_6357" x1="1644.48" y1="4.27931" x2="1644.48" y2="973.453" gradientUnits="userSpaceOnUse">
<stop stop-color="white"/>
<stop offset="1" stop-color="white" stop-opacity="0.2"/>
</linearGradient>
<linearGradient id="paint20_linear_4340_6357" x1="1729.51" y1="4.28198" x2="1729.51" y2="973.448" gradientUnits="userSpaceOnUse">
<stop stop-color="white"/>
<stop offset="1" stop-color="white" stop-opacity="0.2"/>
</linearGradient>
<linearGradient id="paint21_linear_4340_6357" x1="1814.54" y1="4.28505" x2="1814.54" y2="973.449" gradientUnits="userSpaceOnUse">
<stop stop-color="white"/>
<stop offset="1" stop-color="white" stop-opacity="0.2"/>
</linearGradient>
<linearGradient id="paint22_linear_4340_6357" x1="1899.56" y1="4.27897" x2="1899.56" y2="973.45" gradientUnits="userSpaceOnUse">
<stop stop-color="white"/>
<stop offset="1" stop-color="white" stop-opacity="0.2"/>
</linearGradient>
<linearGradient id="paint23_linear_4340_6357" x1="1984.6" y1="4.28653" x2="1984.6" y2="973.448" gradientUnits="userSpaceOnUse">
<stop stop-color="white"/>
<stop offset="1" stop-color="white" stop-opacity="0.2"/>
</linearGradient>
<linearGradient id="paint24_linear_4340_6357" x1="2069.63" y1="4.2931" x2="2069.63" y2="973.449" gradientUnits="userSpaceOnUse">
<stop stop-color="white"/>
<stop offset="1" stop-color="white" stop-opacity="0.2"/>
</linearGradient>
<linearGradient id="paint25_linear_4340_6357" x1="2154.66" y1="4.28093" x2="2154.66" y2="973.484" gradientUnits="userSpaceOnUse">
<stop stop-color="white"/>
<stop offset="1" stop-color="white" stop-opacity="0.2"/>
</linearGradient>
<linearGradient id="paint26_linear_4340_6357" x1="2239.69" y1="4.27893" x2="2239.69" y2="973.451" gradientUnits="userSpaceOnUse">
<stop stop-color="white"/>
<stop offset="1" stop-color="white" stop-opacity="0.2"/>
</linearGradient>
<linearGradient id="paint27_linear_4340_6357" x1="2324.72" y1="4.2841" x2="2324.72" y2="973.448" gradientUnits="userSpaceOnUse">
<stop stop-color="white"/>
<stop offset="1" stop-color="white" stop-opacity="0.2"/>
</linearGradient>
<linearGradient id="paint28_linear_4340_6357" x1="2409.74" y1="4.28505" x2="2409.74" y2="973.449" gradientUnits="userSpaceOnUse">
<stop stop-color="white"/>
<stop offset="1" stop-color="white" stop-opacity="0.2"/>
</linearGradient>
<linearGradient id="paint29_linear_4340_6357" x1="17.4221" y1="378.558" x2="17.4221" y2="959.13" gradientUnits="userSpaceOnUse">
<stop stop-color="white"/>
<stop offset="1" stop-color="white" stop-opacity="0.2"/>
</linearGradient>
<linearGradient id="paint30_linear_4340_6357" x1="68.5674" y1="378.558" x2="68.5674" y2="959.131" gradientUnits="userSpaceOnUse">
<stop stop-color="white"/>
<stop offset="1" stop-color="white" stop-opacity="0.2"/>
</linearGradient>
<linearGradient id="paint31_linear_4340_6357" x1="119.714" y1="378.557" x2="119.714" y2="959.129" gradientUnits="userSpaceOnUse">
<stop stop-color="white"/>
<stop offset="1" stop-color="white" stop-opacity="0.2"/>
</linearGradient>
<linearGradient id="paint32_linear_4340_6357" x1="170.857" y1="378.557" x2="170.857" y2="959.13" gradientUnits="userSpaceOnUse">
<stop stop-color="white"/>
<stop offset="1" stop-color="white" stop-opacity="0.2"/>
</linearGradient>
<linearGradient id="paint33_linear_4340_6357" x1="222.002" y1="378.557" x2="222.002" y2="959.129" gradientUnits="userSpaceOnUse">
<stop stop-color="white"/>
<stop offset="1" stop-color="white" stop-opacity="0.2"/>
</linearGradient>
<linearGradient id="paint34_linear_4340_6357" x1="273.146" y1="378.558" x2="273.146" y2="959.132" gradientUnits="userSpaceOnUse">
<stop stop-color="white"/>
<stop offset="1" stop-color="white" stop-opacity="0.2"/>
</linearGradient>
<linearGradient id="paint35_linear_4340_6357" x1="324.292" y1="378.558" x2="324.292" y2="959.131" gradientUnits="userSpaceOnUse">
<stop stop-color="white"/>
<stop offset="1" stop-color="white" stop-opacity="0.2"/>
</linearGradient>
<linearGradient id="paint36_linear_4340_6357" x1="375.437" y1="378.558" x2="375.437" y2="959.13" gradientUnits="userSpaceOnUse">
<stop stop-color="white"/>
<stop offset="1" stop-color="white" stop-opacity="0.2"/>
</linearGradient>
<linearGradient id="paint37_linear_4340_6357" x1="426.581" y1="378.558" x2="426.581" y2="959.131" gradientUnits="userSpaceOnUse">
<stop stop-color="white"/>
<stop offset="1" stop-color="white" stop-opacity="0.2"/>
</linearGradient>
<linearGradient id="paint38_linear_4340_6357" x1="477.726" y1="378.558" x2="477.726" y2="959.131" gradientUnits="userSpaceOnUse">
<stop stop-color="white"/>
<stop offset="1" stop-color="white" stop-opacity="0.2"/>
</linearGradient>
<linearGradient id="paint39_linear_4340_6357" x1="528.872" y1="378.557" x2="528.872" y2="959.131" gradientUnits="userSpaceOnUse">
<stop stop-color="white"/>
<stop offset="1" stop-color="white" stop-opacity="0.2"/>
</linearGradient>
<linearGradient id="paint40_linear_4340_6357" x1="580.016" y1="378.557" x2="580.016" y2="959.129" gradientUnits="userSpaceOnUse">
<stop stop-color="white"/>
<stop offset="1" stop-color="white" stop-opacity="0.2"/>
</linearGradient>
<linearGradient id="paint41_linear_4340_6357" x1="631.161" y1="378.558" x2="631.161" y2="959.132" gradientUnits="userSpaceOnUse">
<stop stop-color="white"/>
<stop offset="1" stop-color="white" stop-opacity="0.2"/>
</linearGradient>
<linearGradient id="paint42_linear_4340_6357" x1="682.308" y1="378.556" x2="682.308" y2="959.131" gradientUnits="userSpaceOnUse">
<stop stop-color="white"/>
<stop offset="1" stop-color="white" stop-opacity="0.2"/>
</linearGradient>
<linearGradient id="paint43_linear_4340_6357" x1="733.452" y1="378.558" x2="733.452" y2="959.131" gradientUnits="userSpaceOnUse">
<stop stop-color="white"/>
<stop offset="1" stop-color="white" stop-opacity="0.2"/>
</linearGradient>
<linearGradient id="paint44_linear_4340_6357" x1="784.597" y1="378.558" x2="784.597" y2="959.131" gradientUnits="userSpaceOnUse">
<stop stop-color="white"/>
<stop offset="1" stop-color="white" stop-opacity="0.2"/>
</linearGradient>
<linearGradient id="paint45_linear_4340_6357" x1="835.742" y1="378.558" x2="835.742" y2="959.13" gradientUnits="userSpaceOnUse">
<stop stop-color="white"/>
<stop offset="1" stop-color="white" stop-opacity="0.2"/>
</linearGradient>
<linearGradient id="paint46_linear_4340_6357" x1="886.886" y1="378.558" x2="886.886" y2="959.133" gradientUnits="userSpaceOnUse">
<stop stop-color="white"/>
<stop offset="1" stop-color="white" stop-opacity="0.2"/>
</linearGradient>
<linearGradient id="paint47_linear_4340_6357" x1="938.032" y1="378.564" x2="938.032" y2="959.131" gradientUnits="userSpaceOnUse">
<stop stop-color="white"/>
<stop offset="1" stop-color="white" stop-opacity="0.2"/>
</linearGradient>
<linearGradient id="paint48_linear_4340_6357" x1="989.177" y1="378.562" x2="989.177" y2="959.134" gradientUnits="userSpaceOnUse">
<stop stop-color="white"/>
<stop offset="1" stop-color="white" stop-opacity="0.2"/>
</linearGradient>
<linearGradient id="paint49_linear_4340_6357" x1="1040.32" y1="378.562" x2="1040.32" y2="959.135" gradientUnits="userSpaceOnUse">
<stop stop-color="white"/>
<stop offset="1" stop-color="white" stop-opacity="0.2"/>
</linearGradient>
<linearGradient id="paint50_linear_4340_6357" x1="1091.47" y1="378.562" x2="1091.47" y2="959.136" gradientUnits="userSpaceOnUse">
<stop stop-color="white"/>
<stop offset="1" stop-color="white" stop-opacity="0.2"/>
</linearGradient>
<linearGradient id="paint51_linear_4340_6357" x1="1142.61" y1="378.561" x2="1142.61" y2="959.135" gradientUnits="userSpaceOnUse">
<stop stop-color="white"/>
<stop offset="1" stop-color="white" stop-opacity="0.2"/>
</linearGradient>
<linearGradient id="paint52_linear_4340_6357" x1="1193.76" y1="378.562" x2="1193.76" y2="959.135" gradientUnits="userSpaceOnUse">
<stop stop-color="white"/>
<stop offset="1" stop-color="white" stop-opacity="0.2"/>
</linearGradient>
<linearGradient id="paint53_linear_4340_6357" x1="1244.9" y1="378.561" x2="1244.9" y2="959.135" gradientUnits="userSpaceOnUse">
<stop stop-color="white"/>
<stop offset="1" stop-color="white" stop-opacity="0.2"/>
</linearGradient>
<linearGradient id="paint54_linear_4340_6357" x1="1296.05" y1="378.563" x2="1296.05" y2="959.135" gradientUnits="userSpaceOnUse">
<stop stop-color="white"/>
<stop offset="1" stop-color="white" stop-opacity="0.2"/>
</linearGradient>
<linearGradient id="paint55_linear_4340_6357" x1="1347.19" y1="378.561" x2="1347.19" y2="959.135" gradientUnits="userSpaceOnUse">
<stop stop-color="white"/>
<stop offset="1" stop-color="white" stop-opacity="0.2"/>
</linearGradient>
<linearGradient id="paint56_linear_4340_6357" x1="1398.34" y1="378.561" x2="1398.34" y2="959.134" gradientUnits="userSpaceOnUse">
<stop stop-color="white"/>
<stop offset="1" stop-color="white" stop-opacity="0.2"/>
</linearGradient>
<linearGradient id="paint57_linear_4340_6357" x1="1449.48" y1="378.562" x2="1449.48" y2="959.137" gradientUnits="userSpaceOnUse">
<stop stop-color="white"/>
<stop offset="1" stop-color="white" stop-opacity="0.2"/>
</linearGradient>
<linearGradient id="paint58_linear_4340_6357" x1="1500.63" y1="378.561" x2="1500.63" y2="959.135" gradientUnits="userSpaceOnUse">
<stop stop-color="white"/>
<stop offset="1" stop-color="white" stop-opacity="0.2"/>
</linearGradient>
<linearGradient id="paint59_linear_4340_6357" x1="1551.77" y1="378.563" x2="1551.77" y2="959.136" gradientUnits="userSpaceOnUse">
<stop stop-color="white"/>
<stop offset="1" stop-color="white" stop-opacity="0.2"/>
</linearGradient>
<linearGradient id="paint60_linear_4340_6357" x1="1602.92" y1="378.562" x2="1602.92" y2="959.136" gradientUnits="userSpaceOnUse">
<stop stop-color="white"/>
<stop offset="1" stop-color="white" stop-opacity="0.2"/>
</linearGradient>
<linearGradient id="paint61_linear_4340_6357" x1="1654.06" y1="378.562" x2="1654.06" y2="959.135" gradientUnits="userSpaceOnUse">
<stop stop-color="white"/>
<stop offset="1" stop-color="white" stop-opacity="0.2"/>
</linearGradient>
<linearGradient id="paint62_linear_4340_6357" x1="1705.21" y1="378.562" x2="1705.21" y2="959.135" gradientUnits="userSpaceOnUse">
<stop stop-color="white"/>
<stop offset="1" stop-color="white" stop-opacity="0.2"/>
</linearGradient>
<linearGradient id="paint63_linear_4340_6357" x1="1756.35" y1="378.561" x2="1756.35" y2="959.156" gradientUnits="userSpaceOnUse">
<stop stop-color="white"/>
<stop offset="1" stop-color="white" stop-opacity="0.2"/>
</linearGradient>
<linearGradient id="paint64_linear_4340_6357" x1="1807.5" y1="378.562" x2="1807.5" y2="959.136" gradientUnits="userSpaceOnUse">
<stop stop-color="white"/>
<stop offset="1" stop-color="white" stop-opacity="0.2"/>
</linearGradient>
<linearGradient id="paint65_linear_4340_6357" x1="1858.64" y1="378.561" x2="1858.64" y2="959.134" gradientUnits="userSpaceOnUse">
<stop stop-color="white"/>
<stop offset="1" stop-color="white" stop-opacity="0.2"/>
</linearGradient>
<linearGradient id="paint66_linear_4340_6357" x1="1909.79" y1="378.563" x2="1909.79" y2="959.136" gradientUnits="userSpaceOnUse">
<stop stop-color="white"/>
<stop offset="1" stop-color="white" stop-opacity="0.2"/>
</linearGradient>
<linearGradient id="paint67_linear_4340_6357" x1="1960.93" y1="378.561" x2="1960.93" y2="959.136" gradientUnits="userSpaceOnUse">
<stop stop-color="white"/>
<stop offset="1" stop-color="white" stop-opacity="0.2"/>
</linearGradient>
<linearGradient id="paint68_linear_4340_6357" x1="2012.08" y1="378.561" x2="2012.08" y2="959.134" gradientUnits="userSpaceOnUse">
<stop stop-color="white"/>
<stop offset="1" stop-color="white" stop-opacity="0.2"/>
</linearGradient>
<linearGradient id="paint69_linear_4340_6357" x1="2063.22" y1="378.562" x2="2063.22" y2="959.134" gradientUnits="userSpaceOnUse">
<stop stop-color="white"/>
<stop offset="1" stop-color="white" stop-opacity="0.2"/>
</linearGradient>
<linearGradient id="paint70_linear_4340_6357" x1="2114.37" y1="378.562" x2="2114.37" y2="959.136" gradientUnits="userSpaceOnUse">
<stop stop-color="white"/>
<stop offset="1" stop-color="white" stop-opacity="0.2"/>
</linearGradient>
<linearGradient id="paint71_linear_4340_6357" x1="2165.51" y1="378.562" x2="2165.51" y2="959.163" gradientUnits="userSpaceOnUse">
<stop stop-color="white"/>
<stop offset="1" stop-color="white" stop-opacity="0.2"/>
</linearGradient>
<linearGradient id="paint72_linear_4340_6357" x1="2216.66" y1="378.562" x2="2216.66" y2="959.135" gradientUnits="userSpaceOnUse">
<stop stop-color="white"/>
<stop offset="1" stop-color="white" stop-opacity="0.2"/>
</linearGradient>
<linearGradient id="paint73_linear_4340_6357" x1="2267.8" y1="378.562" x2="2267.8" y2="959.136" gradientUnits="userSpaceOnUse">
<stop stop-color="white"/>
<stop offset="1" stop-color="white" stop-opacity="0.2"/>
</linearGradient>
<linearGradient id="paint74_linear_4340_6357" x1="2318.95" y1="378.561" x2="2318.95" y2="959.134" gradientUnits="userSpaceOnUse">
<stop stop-color="white"/>
<stop offset="1" stop-color="white" stop-opacity="0.2"/>
</linearGradient>
<linearGradient id="paint75_linear_4340_6357" x1="2370.09" y1="378.562" x2="2370.09" y2="959.136" gradientUnits="userSpaceOnUse">
<stop stop-color="white"/>
<stop offset="1" stop-color="white" stop-opacity="0.2"/>
</linearGradient>
<linearGradient id="paint76_linear_4340_6357" x1="2421.24" y1="378.561" x2="2421.24" y2="959.133" gradientUnits="userSpaceOnUse">
<stop stop-color="white"/>
<stop offset="1" stop-color="white" stop-opacity="0.2"/>
</linearGradient>
<linearGradient id="paint77_linear_4340_6357" x1="2472" y1="337" x2="805.399" y2="719.645" gradientUnits="userSpaceOnUse">
<stop offset="0.162634" stop-color="#0E1F5F"/>
<stop offset="0.275052" stop-color="#A5B8FF"/>
<stop offset="0.438868" stop-color="#A5B8FF" stop-opacity="0.7"/>
<stop offset="0.585265" stop-color="#A5B8FF" stop-opacity="0.26"/>
<stop offset="1" stop-color="#787878" stop-opacity="0"/>
</linearGradient>
</defs>
</svg>
