<svg width="159" height="35" viewBox="0 0 159 35" fill="none" xmlns="http://www.w3.org/2000/svg">
<g clip-path="url(#clip0_4167_827)">
<g clip-path="url(#clip1_4167_827)">
<mask id="mask0_4167_827" style="mask-type:luminance" maskUnits="userSpaceOnUse" x="1" y="0" width="33" height="35">
<path d="M33.2696 0.486328H1.95825V34.5141H33.2696V0.486328Z" fill="white"/>
</mask>
<g mask="url(#mask0_4167_827)">
<path d="M19.5605 0.486328V4.20983H19.4589C19.3997 4.20983 19.3404 4.22678 19.3277 4.25217C19.315 4.27333 19.2177 4.29448 19.1162 4.29448C19.0146 4.29448 18.9172 4.3114 18.9046 4.33679C18.8919 4.35794 18.803 4.3791 18.7141 4.3791C18.6253 4.3791 18.5407 4.39601 18.528 4.41717C18.5153 4.43832 18.4307 4.46372 18.3461 4.47643C18.1302 4.50605 17.9483 4.54836 17.8467 4.59067C17.8003 4.60759 17.6776 4.64566 17.5717 4.67528C17.466 4.70068 17.3475 4.74298 17.3094 4.76414C17.2671 4.78529 17.1951 4.80224 17.1528 4.80224C17.1063 4.80224 17.0598 4.81915 17.0471 4.83607C17.0343 4.853 16.9286 4.89533 16.8143 4.92916C16.6958 4.95879 16.5986 5.0011 16.5986 5.02225C16.5986 5.03917 16.5605 5.05609 16.5182 5.05609C16.4716 5.05609 16.4209 5.07304 16.4081 5.09842C16.3955 5.11958 16.3362 5.14074 16.277 5.14074C16.2219 5.14074 16.1754 5.15765 16.1754 5.18305C16.1754 5.20419 16.15 5.22535 16.1204 5.22535C16.04 5.22535 15.7819 5.34807 14.9399 5.78389C14.7918 5.86003 14.6648 5.93197 14.6522 5.94468C14.6395 5.95736 14.5803 5.99123 14.5168 6.02506C14.4491 6.05892 14.3983 6.10123 14.3983 6.12239C14.3983 6.1393 14.3687 6.15622 14.3306 6.15622C14.2925 6.15622 14.229 6.19008 14.191 6.2324C14.1529 6.27047 14.0725 6.32971 14.009 6.36356C13.9413 6.39742 13.8906 6.43973 13.8906 6.46088C13.8906 6.4778 13.8652 6.49474 13.8355 6.49474C13.8059 6.49474 13.7424 6.52858 13.6959 6.57089C13.6535 6.61322 13.5478 6.69361 13.4673 6.74863C13.387 6.80785 13.2812 6.89247 13.2304 6.93902C13.1839 6.98556 13.0781 7.0702 13.0019 7.12943C12.7566 7.31137 11.8595 8.22956 11.8595 8.29726C11.8595 8.30994 11.8045 8.37343 11.7411 8.43266C11.6776 8.49612 11.576 8.6146 11.521 8.695C11.466 8.77539 11.4068 8.85156 11.3941 8.86424C11.3518 8.8981 11.0979 9.27891 11.0979 9.30854C11.0979 9.32121 11.0598 9.372 11.0133 9.42278C10.9667 9.47356 10.9286 9.54126 10.9286 9.57086C10.9286 9.60048 10.9117 9.62588 10.8863 9.62588C10.8652 9.62588 10.844 9.66395 10.844 9.70626C10.844 9.75277 10.8271 9.79516 10.8101 9.80362C10.7636 9.82054 10.4209 10.506 10.4209 10.5822C10.4209 10.616 10.4039 10.6414 10.3786 10.6414C10.3574 10.6414 10.3362 10.6795 10.3362 10.726C10.3362 10.7725 10.3193 10.8106 10.2939 10.8106C10.2728 10.8106 10.2516 10.8488 10.2516 10.8952C10.2516 10.9799 10.2347 11.0179 10.1332 11.221C10.1035 11.2761 10.0824 11.3565 10.0824 11.403C10.0824 11.4496 10.0654 11.4876 10.0401 11.4876C10.0189 11.4876 9.99775 11.5426 9.99775 11.6146C9.99775 11.6822 9.98083 11.7416 9.95544 11.7416C9.93428 11.7416 9.91314 11.8049 9.91314 11.8853C9.91314 11.9657 9.89619 12.0461 9.8708 12.0589C9.84964 12.0715 9.82849 12.1393 9.82849 12.207C9.82849 12.2746 9.81157 12.3424 9.78619 12.355C9.76503 12.3678 9.74387 12.4523 9.74387 12.5412C9.74387 12.6301 9.72696 12.7147 9.7058 12.7358C9.68465 12.7612 9.65502 12.8713 9.64231 12.9897C9.62963 13.104 9.59577 13.3832 9.5704 13.6033C9.47731 14.3099 9.51962 16.5694 9.62116 16.6329C9.64231 16.6455 9.65925 16.7556 9.65925 16.8825C9.65925 17.0094 9.68041 17.1237 9.70156 17.1364C9.72696 17.149 9.74387 17.2548 9.74387 17.3691C9.74387 17.4834 9.76503 17.5891 9.78619 17.6018C9.81157 17.6146 9.82849 17.6907 9.82849 17.7711C9.82849 17.8515 9.84964 17.9276 9.8708 17.9403C9.89619 17.953 9.91314 18.0207 9.91314 18.0884C9.91314 18.1562 9.93428 18.2238 9.95544 18.2365C9.98083 18.2492 9.99775 18.3169 9.99775 18.3846C9.99775 18.4523 10.0189 18.52 10.0401 18.5327C10.0654 18.5455 10.0824 18.6047 10.0824 18.6597C10.0824 18.7146 10.1035 18.7739 10.1247 18.7866C10.1501 18.7993 10.167 18.8585 10.167 18.9135C10.167 18.9686 10.1882 19.0278 10.2093 19.0404C10.2347 19.0531 10.2516 19.1124 10.2516 19.1717C10.2516 19.2266 10.2685 19.2732 10.2855 19.2732C10.3066 19.2732 10.349 19.3705 10.3786 19.4847C10.4082 19.6032 10.4505 19.6963 10.4717 19.6963C10.4886 19.6963 10.5055 19.7344 10.5055 19.781C10.5055 19.8275 10.5267 19.8655 10.5478 19.8655C10.5732 19.8655 10.5901 19.8909 10.5901 19.9164C10.5901 19.9841 10.9371 20.6864 10.9794 20.7033C11.0006 20.7119 11.0133 20.7541 11.0133 20.8006C11.0133 20.843 11.0302 20.8811 11.0513 20.8811C11.0725 20.8811 11.0979 20.915 11.1106 20.9572C11.1402 21.0418 11.2671 21.2577 11.3391 21.3338C11.3644 21.3634 11.4025 21.4269 11.4152 21.4735C11.4279 21.52 11.4618 21.5581 11.4829 21.5581C11.5041 21.5581 11.521 21.5835 11.521 21.6131C11.521 21.6427 11.5591 21.7104 11.6056 21.7612C11.6522 21.8119 11.6902 21.867 11.6902 21.8881C11.6902 21.9092 11.7453 21.9854 11.8172 22.0573C11.9611 22.2097 11.9695 22.235 11.8807 22.235C11.8087 22.235 10.5097 20.953 10.3193 20.6991C10.2559 20.6144 10.1585 20.496 10.0993 20.4368C10.0443 20.3818 9.99775 20.3183 9.99775 20.2971C9.99775 20.276 9.93849 20.1998 9.8708 20.1278C9.79889 20.0517 9.74387 19.9798 9.74387 19.9629C9.74387 19.9418 9.68465 19.8614 9.61692 19.781C9.54922 19.7006 9.49 19.6159 9.49 19.599C9.49 19.582 9.45192 19.5271 9.40538 19.4763C9.35884 19.4255 9.32073 19.3578 9.32073 19.3282C9.32073 19.2985 9.30382 19.2732 9.27842 19.2732C9.25727 19.2732 9.23611 19.2351 9.23611 19.1886C9.23611 19.142 9.2192 19.1039 9.19804 19.1039C9.17688 19.1039 9.13879 19.0447 9.10919 18.977C9.07956 18.9051 9.04149 18.85 9.02034 18.85C8.99915 18.85 8.98224 18.8119 8.98224 18.7655C8.98224 18.7189 8.96532 18.6808 8.93992 18.6808C8.91877 18.6808 8.89762 18.6427 8.89762 18.5962C8.89762 18.5496 8.8807 18.5115 8.85531 18.5115C8.83416 18.5115 8.813 18.4735 8.813 18.4269C8.813 18.3804 8.79606 18.3423 8.77067 18.3423C8.74951 18.3423 8.72836 18.3042 8.72836 18.2577C8.72836 18.2111 8.71144 18.1731 8.68605 18.1731C8.66489 18.1731 8.64374 18.135 8.64374 18.0884C8.64374 18.0418 8.62682 18.0038 8.60144 18.0038C8.58028 18.0038 8.55912 17.9657 8.55912 17.9191C8.55912 17.8727 8.54218 17.8346 8.51681 17.8346C8.49563 17.8346 8.47448 17.7965 8.47448 17.7542C8.47448 17.7076 8.45756 17.6568 8.43217 17.6441C8.41102 17.6315 8.38986 17.5722 8.38986 17.513C8.38986 17.4579 8.37294 17.4115 8.34755 17.4115C8.32639 17.4115 8.30525 17.3649 8.30525 17.3099C8.30525 17.2506 8.2883 17.1914 8.26294 17.1787C8.24178 17.166 8.2206 17.1152 8.2206 17.0686C8.2206 17.0264 8.20368 16.9883 8.1783 16.9883C8.15714 16.9883 8.13598 16.9333 8.13598 16.8656C8.13598 16.7936 8.11907 16.7259 8.09367 16.7133C8.07252 16.7006 8.05136 16.6414 8.05136 16.5863C8.05136 16.5313 8.03445 16.4721 8.00906 16.4594C7.98791 16.4467 7.96675 16.379 7.96675 16.3113C7.96675 16.2436 7.9498 16.1759 7.92441 16.1632C7.90325 16.1505 7.88211 16.0744 7.88211 15.994C7.88211 15.9136 7.86518 15.8374 7.8398 15.8247C7.81864 15.812 7.79749 15.7232 7.79749 15.6343C7.79749 15.5455 7.78057 15.4566 7.75517 15.4439C7.73402 15.4312 7.71286 15.3381 7.71286 15.2366C7.71286 15.135 7.69593 15.042 7.67477 15.0208C7.63246 14.9742 7.61978 14.8346 7.53937 13.7513C7.46323 12.6809 7.48438 12.0335 7.62822 11.0857C7.65362 10.9206 7.68324 10.7049 7.69593 10.5991C7.70863 10.4933 7.73826 10.3917 7.75941 10.3663C7.78057 10.3452 7.79749 10.2648 7.79749 10.1929C7.79749 10.1167 7.81864 10.0406 7.8398 10.0278C7.86095 10.0152 7.88211 9.93895 7.88211 9.85865C7.88211 9.77815 7.90325 9.70205 7.92441 9.68934C7.9498 9.67666 7.96675 9.59626 7.96675 9.51587C7.96675 9.43546 7.98791 9.372 8.00906 9.372C8.03445 9.372 8.05136 9.31277 8.05136 9.24507C8.05136 9.17313 8.07252 9.11812 8.09367 9.11812C8.11907 9.11812 8.13598 9.0589 8.13598 8.99119C8.13598 8.91926 8.15714 8.86424 8.1783 8.86424C8.20368 8.86424 8.2206 8.82617 8.2206 8.77963C8.2206 8.73308 8.24178 8.65691 8.26294 8.61036C8.2883 8.56382 8.32639 8.48767 8.34755 8.44113C8.37294 8.39459 8.38986 8.31842 8.38986 8.27186C8.38986 8.22532 8.41102 8.18725 8.43217 8.18725C8.45756 8.18725 8.47448 8.14915 8.47448 8.10261C8.47448 8.05609 8.49563 8.01799 8.51681 8.01799C8.54218 8.01799 8.55912 7.98836 8.55912 7.95452C8.55912 7.92066 8.57604 7.8572 8.5972 7.81489C8.61835 7.77682 8.71144 7.59064 8.80029 7.40446C9.00339 6.99826 9.16418 6.69361 9.19381 6.66397C9.23611 6.62167 9.36727 6.38894 9.39267 6.3128C9.40538 6.27471 9.43077 6.24086 9.45192 6.24086C9.47307 6.24086 9.49 6.21548 9.49 6.18584C9.49 6.15622 9.52807 6.08853 9.57461 6.03777C9.62116 5.98699 9.65925 5.93197 9.65925 5.91505C9.65925 5.89814 9.71848 5.81349 9.78619 5.73311C9.85388 5.6527 9.91314 5.57232 9.91314 5.55117C9.91314 5.53424 9.96813 5.46231 10.0401 5.38614C10.112 5.31421 10.167 5.23806 10.167 5.21688C10.167 5.19151 10.222 5.12382 10.2855 5.06456C10.349 5.0011 10.4505 4.88262 10.5055 4.80224C10.6409 4.61183 11.7495 3.50322 11.9442 3.36358C12.0245 3.30435 12.1642 3.18588 12.2572 3.10126C12.3461 3.01239 12.4434 2.94047 12.4688 2.94047C12.4943 2.94047 12.545 2.90239 12.5788 2.85584C12.6127 2.8093 12.6634 2.77122 12.6888 2.77122C12.7143 2.77122 12.7947 2.71198 12.8665 2.64428C12.9427 2.57235 13.0189 2.51734 13.0358 2.51734C13.057 2.51734 13.1077 2.48349 13.1543 2.44118C13.2601 2.34809 13.4673 2.22115 13.5647 2.19153C13.6028 2.17884 13.6366 2.15345 13.6366 2.13229C13.6366 2.11114 13.6747 2.09421 13.7213 2.09421C13.7678 2.09421 13.8059 2.08152 13.8059 2.06037C13.8059 2.04344 13.8482 2.00959 13.9032 1.9842C13.9539 1.95881 14.229 1.81918 14.5125 1.67532C14.7918 1.53569 15.0541 1.41721 15.0922 1.41721C15.1303 1.41721 15.1599 1.40029 15.1599 1.38336C15.1599 1.3622 15.2572 1.31989 15.3714 1.29027C15.49 1.26065 15.583 1.21833 15.583 1.19718C15.583 1.18026 15.6423 1.16334 15.71 1.16334C15.7819 1.16334 15.8369 1.14218 15.8369 1.12102C15.8369 1.09563 15.8962 1.0787 15.9638 1.0787C16.0358 1.0787 16.0908 1.05755 16.0908 1.03639C16.0908 1.01101 16.1458 0.994081 16.2135 0.994081C16.2854 0.994081 16.3531 0.972925 16.3658 0.951769C16.3785 0.926381 16.4462 0.909455 16.5139 0.909455C16.5816 0.909455 16.6451 0.892531 16.6578 0.871374C16.6705 0.850217 16.7424 0.82483 16.8186 0.812136C16.8947 0.795211 17.064 0.765592 17.191 0.740205C17.6183 0.655579 17.9271 0.609035 18.2995 0.579416C18.5026 0.562491 18.6803 0.532872 18.6972 0.515947C18.7141 0.499022 18.9172 0.486328 19.1457 0.486328H19.5605Z" fill="white"/>
<path d="M18.8027 24.8717C18.7223 24.9097 18.6249 24.9437 18.5827 24.9437C18.5404 24.9437 18.4938 24.9606 18.4811 24.986C18.4684 25.0071 18.4091 25.0283 18.3542 25.0283C18.2992 25.0283 18.2399 25.0452 18.2272 25.0705C18.2145 25.0917 18.1468 25.1128 18.0791 25.1128C18.0114 25.1128 17.9437 25.134 17.9311 25.1552C17.9183 25.1806 17.8421 25.1975 17.7618 25.1975C17.6814 25.1975 17.6095 25.2144 17.5967 25.2356C17.5841 25.2567 17.4994 25.2821 17.4148 25.2948C17.326 25.3076 17.1482 25.3414 17.0213 25.3668C15.6757 25.6334 14.034 25.6672 12.7054 25.4514C12.553 25.426 12.3415 25.3963 12.2315 25.3837C12.1173 25.371 12.0284 25.3414 12.0284 25.3202C12.0284 25.299 11.9522 25.2821 11.8592 25.2821C11.766 25.2821 11.6899 25.261 11.6899 25.2398C11.6899 25.2144 11.6264 25.1975 11.546 25.1975C11.4656 25.1975 11.3852 25.1806 11.3725 25.1552C11.3598 25.134 11.2921 25.1128 11.2202 25.1128C11.1525 25.1128 11.0975 25.0917 11.0975 25.0705C11.0975 25.0452 11.0425 25.0283 10.9706 25.0283C10.9029 25.0283 10.8436 25.0071 10.8436 24.986C10.8436 24.9606 10.7886 24.9437 10.7209 24.9437C10.649 24.9437 10.5813 24.9225 10.5686 24.9013C10.5559 24.8759 10.4967 24.859 10.4374 24.859C10.3824 24.859 10.3359 24.8421 10.3359 24.8252C10.3359 24.804 10.2428 24.7617 10.1243 24.7321C10.0101 24.7025 9.91276 24.6602 9.91276 24.639C9.91276 24.6221 9.87466 24.6051 9.82811 24.6051C9.78156 24.6051 9.74349 24.584 9.74349 24.5629C9.74349 24.5374 9.71811 24.5205 9.69271 24.5205C9.63773 24.5205 8.77032 24.1016 8.72798 24.0551C8.68991 24.0169 8.45295 23.8816 8.38104 23.8561C8.3387 23.8435 8.30487 23.8181 8.30487 23.7969C8.30487 23.7758 8.26679 23.7588 8.22024 23.7588C8.1737 23.7588 8.1356 23.7419 8.1356 23.725C8.1356 23.7039 8.08482 23.6616 8.02136 23.6277C7.95366 23.5938 7.87328 23.5346 7.83518 23.4965C7.7971 23.4542 7.74633 23.4204 7.72517 23.4204C7.70402 23.4204 7.64901 23.3866 7.60246 23.3442C7.56014 23.3019 7.45438 23.2258 7.37396 23.1664C7.29359 23.1115 7.21742 23.0522 7.20473 23.0396C7.19202 23.0268 7.13703 22.9803 7.08202 22.9423C6.71389 22.6926 5.17373 21.1524 5.17373 21.0382C5.17373 21.017 5.13986 20.9662 5.09755 20.9282C5.05525 20.8901 4.97484 20.7928 4.91985 20.7124C4.86483 20.632 4.7929 20.5389 4.76327 20.5093C4.73367 20.4796 4.67865 20.3992 4.63634 20.3315C4.59826 20.2596 4.54749 20.2046 4.53056 20.2046C4.51364 20.2046 4.49671 20.1792 4.49671 20.1496C4.49671 20.12 4.46286 20.0565 4.42478 20.0099C4.38247 19.9635 4.32746 19.8872 4.30207 19.8407C4.27669 19.7984 4.23014 19.7138 4.19629 19.6546C4.16244 19.5953 4.12859 19.5404 4.11589 19.5276C4.07358 19.4853 3.94242 19.2526 3.91702 19.1764C3.90434 19.1383 3.87894 19.1045 3.85779 19.1045C3.83663 19.1045 3.8197 19.0664 3.8197 19.0198C3.8197 18.9733 3.80278 18.9352 3.77739 18.9352C3.75624 18.9352 3.73508 18.8971 3.73508 18.8506C3.73508 18.8041 3.71816 18.766 3.69277 18.766C3.67162 18.766 3.65046 18.7279 3.65046 18.6814C3.65046 18.6348 3.63353 18.5967 3.60814 18.5967C3.58698 18.5967 3.56583 18.5586 3.56583 18.5121C3.56583 18.4656 3.5489 18.4275 3.52352 18.4275C3.50236 18.4275 3.48121 18.3894 3.48121 18.3429C3.48121 18.2963 3.46428 18.2582 3.43889 18.2582C3.41774 18.2582 3.39658 18.2117 3.39658 18.1567C3.39658 18.0975 3.37966 18.0382 3.35426 18.0255C3.33311 18.0128 3.31195 17.962 3.31195 17.9155C3.31195 17.8732 3.29502 17.8351 3.26964 17.8351C3.24848 17.8351 3.22733 17.7971 3.22733 17.7547C3.22733 17.7082 3.2104 17.6574 3.18502 17.6447C3.16386 17.632 3.14271 17.5728 3.14271 17.5136C3.14271 17.4585 3.12578 17.412 3.1004 17.412C3.07923 17.412 3.05807 17.3528 3.05807 17.285C3.05807 17.213 3.04115 17.1581 3.01576 17.1581C2.99461 17.1581 2.97345 17.1115 2.97345 17.0565C2.97345 16.9973 2.95653 16.9381 2.93114 16.9254C2.90998 16.9126 2.88883 16.845 2.88883 16.773C2.88883 16.7054 2.8719 16.6503 2.85075 16.6503C2.82959 16.6503 2.8042 16.5868 2.79151 16.5107C2.75343 16.2822 2.71534 16.1257 2.67726 16.0368C2.65611 15.9903 2.63072 15.8845 2.61379 15.8041C2.6011 15.7237 2.57148 15.5586 2.54609 15.4444C2.34299 14.4501 2.27106 12.9945 2.37261 12.0171C2.40223 11.759 2.43608 11.4374 2.44877 11.2978C2.46147 11.1581 2.49109 11.027 2.51224 11.0016C2.5334 10.9804 2.55032 10.8705 2.55032 10.7604C2.55032 10.6504 2.57148 10.5573 2.59264 10.5573C2.61802 10.5573 2.63495 10.4812 2.63495 10.388C2.63495 10.295 2.65611 10.2188 2.67726 10.2188C2.70265 10.2188 2.71958 10.1553 2.71958 10.075C2.71958 9.99449 2.74073 9.91419 2.76189 9.90145C2.78727 9.88881 2.8042 9.82105 2.8042 9.75338C2.8042 9.68567 2.82536 9.61797 2.84651 9.60526C2.8719 9.59258 2.88883 9.53333 2.88883 9.47833C2.88883 9.42332 2.90998 9.36409 2.93114 9.35138C2.95653 9.3387 2.97345 9.27944 2.97345 9.22022C2.97345 9.16521 2.99461 9.11866 3.01576 9.11866C3.04115 9.11866 3.05807 9.07213 3.05807 9.01712C3.05807 8.9579 3.07923 8.89864 3.1004 8.88595C3.12578 8.87325 3.14271 8.82247 3.14271 8.77593C3.14271 8.73362 3.16386 8.69554 3.18502 8.69554C3.2104 8.69554 3.22733 8.66592 3.22733 8.63208C3.22733 8.59398 3.26541 8.48397 3.31195 8.39088C3.3585 8.29359 3.39658 8.18778 3.39658 8.15816C3.39658 8.12856 3.41774 8.10317 3.43889 8.10317C3.46428 8.10317 3.48121 8.06507 3.48121 8.01855C3.48121 7.97201 3.50236 7.93391 3.52352 7.93391C3.5489 7.93391 3.56583 7.89583 3.56583 7.84929C3.56583 7.80274 3.58698 7.76467 3.60814 7.76467C3.63353 7.76467 3.65046 7.72657 3.65046 7.68003C3.65046 7.63348 3.66315 7.59541 3.6843 7.59541C3.70123 7.59541 3.73931 7.53619 3.76893 7.46848C3.83663 7.32038 3.82394 7.32461 3.9678 7.39231C4.02704 7.4177 4.07358 7.45578 4.07358 7.47693C4.07358 7.49385 4.11166 7.51079 4.15821 7.51079C4.20475 7.51079 4.24283 7.52771 4.24283 7.54887C4.24283 7.57002 4.27669 7.59541 4.319 7.60809C4.39093 7.63348 4.62366 7.76467 4.66597 7.80698C4.68712 7.82814 4.98331 7.98892 5.16102 8.07778C5.21604 8.10317 5.25835 8.137 5.25835 8.15395C5.25835 8.1751 5.28797 8.18778 5.32181 8.18778C5.35988 8.18778 5.42758 8.22585 5.47836 8.2724C5.52914 8.31895 5.59684 8.35705 5.62647 8.35705C5.65607 8.35705 5.68146 8.37396 5.68146 8.39936C5.68146 8.42051 5.71956 8.44167 5.7661 8.44167C5.81265 8.44167 5.85072 8.45859 5.85072 8.47974C5.85072 8.5009 5.88459 8.52628 5.92689 8.53899C5.99882 8.56438 6.23153 8.69554 6.27387 8.73786C6.31617 8.78016 6.5489 8.91135 6.62504 8.93671C6.66314 8.94942 6.69698 8.97482 6.69698 8.99597C6.69698 9.01712 6.73505 9.03404 6.78159 9.03404C6.82814 9.03404 6.86624 9.05096 6.86624 9.07635C6.86624 9.0975 6.90431 9.11866 6.95085 9.11866C7.01856 9.11866 7.03548 9.14828 7.03548 9.2583C7.03548 9.33446 7.01855 9.41487 7.00163 9.43603C6.98048 9.46141 6.92123 9.62221 6.87045 9.79567C6.81545 9.96912 6.7562 10.1468 6.73505 10.185C6.71389 10.2272 6.69698 10.2992 6.69698 10.3458C6.69698 10.3923 6.68006 10.4642 6.6589 10.5066C6.59542 10.6334 6.52771 10.8789 6.52771 10.9847C6.52771 11.0439 6.5108 11.1074 6.48964 11.1285C6.46848 11.154 6.4431 11.247 6.43041 11.3401C6.41347 11.4332 6.38387 11.6151 6.35848 11.7421C6.10036 13.0284 6.06229 14.7547 6.26963 15.9945C6.29501 16.1341 6.32462 16.3245 6.33732 16.4176C6.35424 16.5107 6.37963 16.625 6.40079 16.6715C6.42194 16.7181 6.44733 16.8238 6.46425 16.9043C6.47696 16.9846 6.49812 17.1157 6.51503 17.1877C6.52771 17.2639 6.55311 17.3274 6.57426 17.3274C6.59541 17.3274 6.61235 17.3697 6.61235 17.4204C6.61235 17.5262 6.70544 17.814 6.75199 17.8605C6.76891 17.8774 6.78159 17.9367 6.78159 17.9916C6.78159 18.0424 6.80274 18.089 6.8239 18.089C6.84929 18.089 6.86624 18.127 6.86624 18.1693C6.86624 18.2159 6.8874 18.2666 6.90854 18.2794C6.93394 18.2921 6.95085 18.3513 6.95085 18.4105C6.95085 18.4656 6.97201 18.5121 6.99316 18.5121C7.01855 18.5121 7.03548 18.5501 7.03548 18.5967C7.03548 18.6433 7.05663 18.6814 7.07778 18.6814C7.10317 18.6814 7.12012 18.7194 7.12012 18.766C7.12012 18.8125 7.14127 18.8506 7.16243 18.8506C7.18781 18.8506 7.20473 18.8887 7.20473 18.9352C7.20473 18.9818 7.22588 19.0198 7.24704 19.0198C7.27243 19.0198 7.28935 19.0579 7.28935 19.1045C7.28935 19.1511 7.31051 19.1891 7.33166 19.1891C7.35705 19.1891 7.37396 19.2272 7.37396 19.2738C7.37396 19.3202 7.39515 19.3584 7.4163 19.3584C7.44169 19.3584 7.45862 19.388 7.45862 19.4218C7.45862 19.4599 7.49669 19.5276 7.54323 19.5784C7.58978 19.6291 7.62785 19.6969 7.62785 19.7264C7.62785 19.7561 7.64901 19.7815 7.67018 19.7815C7.69555 19.7815 7.71249 19.8068 7.71249 19.8365C7.71249 19.8661 7.75056 19.9338 7.7971 19.9846C7.84365 20.0353 7.88173 20.0903 7.88173 20.1073C7.88173 20.1242 7.94098 20.2089 8.00868 20.2893C8.07638 20.3697 8.1356 20.4542 8.1356 20.4712C8.1356 20.4924 8.18638 20.56 8.25409 20.6192C8.31754 20.6827 8.42335 20.8054 8.49105 20.8943C8.65604 21.1144 9.55731 22.0198 9.74349 22.151C9.8239 22.206 9.92121 22.2864 9.9593 22.3287C9.99738 22.371 10.0439 22.4048 10.0693 22.4048C10.0905 22.4048 10.192 22.481 10.2936 22.5741C10.3951 22.6672 10.4967 22.7433 10.5178 22.7433C10.5348 22.7433 10.5898 22.7814 10.6405 22.828C10.6913 22.8745 10.759 22.9126 10.7886 22.9126C10.8182 22.9126 10.8436 22.9295 10.8436 22.9464C10.8436 22.9634 10.9367 23.0268 11.0552 23.0861C11.1694 23.1411 11.2668 23.2004 11.2668 23.2173C11.2668 23.2384 11.3048 23.2511 11.3514 23.2511C11.3979 23.2511 11.436 23.268 11.436 23.285C11.436 23.3062 11.6772 23.4415 11.9776 23.5854C12.2738 23.7293 12.5488 23.8689 12.587 23.8901C12.6293 23.9112 12.6927 23.9281 12.7266 23.9281C12.7604 23.9281 12.7901 23.945 12.7901 23.9705C12.7901 23.9916 12.8281 24.0128 12.8746 24.0128C12.9212 24.0128 13.0016 24.0339 13.0565 24.0635C13.2596 24.1651 13.2978 24.182 13.3782 24.182C13.4247 24.182 13.4755 24.2031 13.4882 24.2243C13.5008 24.2454 13.5517 24.2666 13.5982 24.2666C13.6405 24.2666 13.7124 24.2835 13.7548 24.3047C13.7928 24.3259 13.9113 24.3639 14.0171 24.3936C14.1229 24.4231 14.2414 24.4613 14.2794 24.4824C14.3217 24.5035 14.4233 24.5205 14.5037 24.5205C14.5841 24.5205 14.6518 24.5374 14.6518 24.5586C14.6518 24.5798 14.7322 24.6051 14.8338 24.6221C14.9311 24.6347 15.1257 24.6644 15.2653 24.6897C15.8239 24.7913 16.2427 24.8252 17.3175 24.8421C18.1045 24.859 18.4853 24.8505 18.5911 24.8167C18.6715 24.787 18.7858 24.7744 18.845 24.7829C18.9423 24.7955 18.9423 24.7998 18.8027 24.8717Z" fill="white"/>
<path d="M24.6209 20.1913C24.604 20.2802 24.5829 20.4239 24.5702 20.5128C24.5533 20.5975 24.5279 20.6821 24.5067 20.6948C24.4856 20.7074 24.4686 20.7921 24.4686 20.881C24.4686 20.9698 24.4517 21.0586 24.4263 21.0713C24.4052 21.0841 24.384 21.1518 24.384 21.2194C24.384 21.2872 24.3671 21.3548 24.3417 21.3676C24.3205 21.3802 24.2994 21.4479 24.2994 21.5157C24.2994 21.5833 24.2824 21.6511 24.257 21.6637C24.2359 21.6765 24.2148 21.7357 24.2148 21.7907C24.2148 21.8457 24.1978 21.9049 24.1725 21.9177C24.1513 21.9303 24.1302 21.9895 24.1302 22.0445C24.1302 22.0996 24.1133 22.1588 24.0879 22.1715C24.0667 22.1842 24.0455 22.2435 24.0455 22.3027C24.0455 22.3577 24.0286 22.4043 24.0032 22.4043C23.982 22.4043 23.9609 22.4423 23.9609 22.4846C23.9609 22.5311 23.944 22.5819 23.9186 22.5946C23.8974 22.6074 23.8762 22.6666 23.8762 22.7258C23.8762 22.7808 23.8593 22.8274 23.8339 22.8274C23.8128 22.8274 23.7916 22.8528 23.7916 22.8781C23.7916 22.9501 23.2754 23.9868 23.2331 24.0037C23.2162 24.0121 23.1993 24.0544 23.1993 24.101C23.1993 24.1433 23.1823 24.1814 23.157 24.1814C23.1358 24.1814 23.1146 24.2068 23.1146 24.2363C23.1146 24.266 23.0766 24.3336 23.03 24.3845C22.9834 24.4352 22.9454 24.4944 22.9454 24.5198C22.9454 24.5452 22.9073 24.6045 22.8607 24.6553C22.8142 24.706 22.7762 24.7738 22.7762 24.8033C22.7762 24.833 22.7592 24.8583 22.7423 24.8583C22.7253 24.8583 22.6788 24.9091 22.6407 24.9726C22.6027 25.0403 22.5222 25.1461 22.463 25.218C22.4038 25.2857 22.353 25.3619 22.353 25.3831C22.353 25.4042 22.3191 25.4507 22.2768 25.4888C22.2345 25.5268 22.1541 25.62 22.1034 25.7004C22.0061 25.8358 21.2106 26.6862 21.0075 26.8639C20.9525 26.9148 20.7832 27.0713 20.6267 27.2151C20.4743 27.3634 20.3304 27.4817 20.3135 27.4817C20.2924 27.4817 20.2205 27.5367 20.1443 27.6088C20.0723 27.6763 19.9962 27.7356 19.9708 27.7356C19.9496 27.7356 19.8989 27.7695 19.8608 27.8119C19.8227 27.85 19.7423 27.909 19.6788 27.9429C19.6112 27.9768 19.5603 28.0191 19.5603 28.0403C19.5603 28.0573 19.535 28.0743 19.5054 28.0743C19.4758 28.0743 19.4123 28.1078 19.3657 28.146C19.3234 28.1883 19.2345 28.2476 19.1711 28.2815C19.1034 28.3154 19.0526 28.3575 19.0526 28.3787C19.0526 28.3957 19.0145 28.4126 18.968 28.4126C18.9214 28.4126 18.8834 28.4295 18.8834 28.4507C18.8834 28.4719 18.8495 28.4973 18.8114 28.51C18.7099 28.5439 18.4856 28.6792 18.4687 28.7173C18.4603 28.7385 18.4179 28.7512 18.3714 28.7512C18.329 28.7512 18.291 28.7681 18.291 28.7933C18.291 28.8145 18.2529 28.8357 18.2063 28.8357C18.1598 28.8357 18.1217 28.8526 18.1217 28.878C18.1217 28.8992 18.0836 28.9204 18.0371 28.9204C17.9906 28.9204 17.9525 28.9373 17.9525 28.9628C17.9525 28.984 17.9271 29.0052 17.8974 29.0052C17.8679 29.0052 17.7621 29.043 17.6648 29.0896C17.5717 29.1362 17.4617 29.1743 17.4236 29.1743C17.3898 29.1743 17.3601 29.1913 17.3601 29.2166C17.3601 29.2378 17.3304 29.2587 17.2966 29.2587C17.2628 29.2587 17.1993 29.2757 17.157 29.2969C17.1189 29.318 17.03 29.3562 16.9581 29.3859C16.8904 29.4155 16.7974 29.4537 16.7593 29.4746C16.717 29.4958 16.6535 29.5127 16.6197 29.5127C16.5857 29.5127 16.5223 29.5296 16.48 29.5508C16.4419 29.572 16.3234 29.6101 16.2176 29.6397C16.1119 29.6694 15.9933 29.7073 15.9553 29.7284C15.913 29.7496 15.8242 29.7666 15.7564 29.7666C15.6846 29.7666 15.6211 29.7835 15.6083 29.8047C15.5957 29.8259 15.511 29.8513 15.4264 29.8682C15.3376 29.8809 15.1894 29.9021 15.0964 29.9149C15.0032 29.9318 14.889 29.957 14.8424 29.9781C14.6013 30.084 13.59 30.1603 12.4518 30.1603C11.3855 30.156 10.9243 30.1263 10.3573 30.0205C10.2177 29.9951 10.0104 29.9612 9.89191 29.9527C9.77766 29.94 9.66341 29.9106 9.63803 29.8894C9.61687 29.8682 9.53646 29.8513 9.4603 29.8513C9.38415 29.8513 9.32069 29.8301 9.32069 29.8089C9.32069 29.7835 9.24451 29.7666 9.15142 29.7666C9.05833 29.7666 8.98217 29.7454 8.98217 29.7242C8.98217 29.699 8.92717 29.6821 8.85947 29.6821C8.78754 29.6821 8.71984 29.6609 8.70713 29.6397C8.69445 29.6144 8.63519 29.5973 8.5802 29.5973C8.52519 29.5973 8.46596 29.5763 8.45325 29.5551C8.44057 29.5296 8.38135 29.5127 8.32633 29.5127C8.27131 29.5127 8.21208 29.4915 8.1994 29.4706C8.18669 29.4452 8.12746 29.4282 8.06821 29.4282C8.01322 29.4282 7.96667 29.407 7.96667 29.3859C7.96667 29.3604 7.92013 29.3435 7.86511 29.3435C7.80589 29.3435 7.74663 29.3223 7.73395 29.3011C7.72124 29.2757 7.6747 29.2587 7.63662 29.2587C7.59855 29.2587 7.45044 29.1997 7.31081 29.1319C7.17117 29.0599 7.03578 29.0052 7.00618 29.0052C6.97655 29.0052 6.95116 28.984 6.95116 28.9628C6.95116 28.9373 6.91308 28.9204 6.87077 28.9204C6.82423 28.9204 6.78189 28.9077 6.77345 28.8865C6.76075 28.8611 6.36726 28.6411 6.11758 28.5228C6.06259 28.4973 6.02028 28.4634 6.02028 28.4423C6.02028 28.4253 5.9949 28.4126 5.96527 28.4126C5.93564 28.4126 5.87218 28.3787 5.82564 28.3364C5.74525 28.2688 5.69447 28.2392 5.46175 28.1036C5.40673 28.0784 5.35597 28.0446 5.34327 28.0319C5.33059 28.0191 5.25442 27.9598 5.17403 27.9048C5.09363 27.85 5.01746 27.7907 5.00477 27.7779C4.99209 27.7653 4.91592 27.706 4.83551 27.6509C4.75513 27.596 4.6578 27.5198 4.62397 27.4817C4.59011 27.4478 4.48856 27.3634 4.3997 27.2956C4.1839 27.1349 3.27417 26.2293 3.14301 26.0431C3.08377 25.9627 2.9653 25.8231 2.88067 25.7299C2.79181 25.6411 2.71988 25.5439 2.71988 25.5185C2.71988 25.493 2.6818 25.4423 2.63525 25.4084C2.58871 25.3746 2.55063 25.328 2.55063 25.3027C2.55063 25.2815 2.49139 25.1926 2.42369 25.1122C2.35599 25.0318 2.29675 24.9388 2.29675 24.9091C2.29675 24.8837 2.27983 24.8583 2.25444 24.8583C2.23328 24.8583 2.21213 24.833 2.21213 24.8033C2.21213 24.7738 2.17405 24.706 2.1275 24.6553C2.08096 24.6045 2.04288 24.5368 2.04288 24.4987C2.04288 24.4649 2.02595 24.4352 2.00056 24.4352C1.97941 24.4352 1.95825 24.3971 1.95825 24.3507C1.95825 24.2956 1.98787 24.266 2.04288 24.266C2.08942 24.266 2.1275 24.2491 2.1275 24.2279C2.1275 24.2068 2.16135 24.1814 2.20367 24.1687C2.30098 24.1348 2.52524 23.9994 2.54217 23.9571C2.55063 23.9402 2.59294 23.9274 2.63949 23.9274C2.6818 23.9274 2.71988 23.9105 2.71988 23.8894C2.71988 23.8682 2.75373 23.8429 2.79604 23.8301C2.89337 23.7963 3.11763 23.6609 3.13454 23.6186C3.14301 23.6017 3.18532 23.589 3.23186 23.589C3.27417 23.589 3.31227 23.5721 3.31227 23.5551C3.31227 23.5382 3.40535 23.4747 3.52382 23.4155C3.63807 23.3604 3.73539 23.3012 3.73539 23.28C3.73539 23.2631 3.77347 23.2505 3.82001 23.2505C3.86656 23.2505 3.90464 23.2336 3.90464 23.2124C3.90464 23.1912 3.93848 23.1658 3.9808 23.1532C4.07812 23.1193 4.30238 22.9839 4.3193 22.9416C4.32776 22.9247 4.36161 22.912 4.39547 22.912C4.42932 22.912 4.49702 22.8738 4.5478 22.8274C4.59856 22.7808 4.66628 22.7427 4.69587 22.7427C4.72551 22.7427 4.75089 22.7216 4.75089 22.7004C4.75089 22.675 4.78896 22.6581 4.83551 22.6581C4.88205 22.6581 4.92016 22.6454 4.92016 22.6243C4.92016 22.6074 4.97091 22.5734 5.03016 22.5439C5.1317 22.4973 5.15288 22.5058 5.33903 22.7004C5.44484 22.8105 5.6183 23.005 5.7241 23.1278C6.00335 23.4536 6.52802 23.974 6.70999 24.1136C6.79884 24.1771 6.93424 24.2913 7.00618 24.3676C7.08232 24.4394 7.20927 24.5452 7.28966 24.6045C7.37006 24.6594 7.48008 24.7483 7.53085 24.8033C7.5816 24.8542 7.68317 24.9303 7.75511 24.9684C7.8228 25.0107 7.88203 25.0614 7.88203 25.0784C7.88203 25.0953 7.90743 25.1122 7.93705 25.1122C7.96243 25.1122 8.05552 25.1715 8.13591 25.2392C8.21632 25.3068 8.30941 25.3661 8.339 25.3661C8.3644 25.3661 8.38978 25.3831 8.38978 25.4042C8.38978 25.4253 8.42789 25.4592 8.47444 25.4719C8.52096 25.4846 8.58444 25.5227 8.61404 25.548C8.69021 25.62 8.90601 25.747 8.99488 25.7765C9.03295 25.7893 9.06681 25.8146 9.06681 25.8358C9.06681 25.8569 9.10488 25.8738 9.14719 25.8738C9.19373 25.8738 9.23604 25.8866 9.24451 25.9035C9.26143 25.9501 9.61264 26.1278 9.68457 26.1278C9.71841 26.1278 9.7438 26.1447 9.7438 26.1701C9.7438 26.1912 9.78187 26.2124 9.82842 26.2124C9.87496 26.2124 9.91306 26.2293 9.91306 26.2547C9.91306 26.2758 9.93846 26.2969 9.96805 26.2969C10.0019 26.2969 10.0823 26.3224 10.15 26.3563C10.3785 26.4662 10.5689 26.5424 10.7382 26.5975C10.8312 26.627 10.9243 26.6693 10.9455 26.6863C10.9709 26.7032 11.0301 26.7202 11.0809 26.7202C11.1359 26.7202 11.1909 26.7371 11.2036 26.7624C11.2163 26.7836 11.2671 26.8047 11.3136 26.8047C11.3559 26.8047 11.4279 26.8217 11.4702 26.8428C11.6056 26.9105 11.8425 26.9739 11.9694 26.9739C12.0414 26.9739 12.1133 26.9908 12.1387 27.012C12.1599 27.0332 12.2614 27.0629 12.3673 27.0755C12.4729 27.0882 12.6929 27.1222 12.8538 27.1475C13.2219 27.2151 15.2275 27.2151 15.6465 27.1518C15.9976 27.0967 16.2939 27.0374 16.5562 26.9739C16.6619 26.9486 16.81 26.9148 16.8862 26.9021C16.9624 26.8893 17.0343 26.8639 17.0469 26.8428C17.0597 26.8217 17.1147 26.8047 17.1697 26.8047C17.2247 26.8047 17.284 26.7836 17.2966 26.7624C17.3093 26.7371 17.377 26.7202 17.4448 26.7202C17.5124 26.7202 17.5801 26.699 17.5928 26.6778C17.6055 26.6524 17.6563 26.6355 17.7028 26.6355C17.7452 26.6355 17.7832 26.6144 17.7832 26.5932C17.7832 26.5678 17.8425 26.5509 17.9102 26.5509C17.9821 26.5509 18.0371 26.5297 18.0371 26.5086C18.0371 26.4831 18.0752 26.4662 18.1217 26.4662C18.1683 26.4662 18.2698 26.4282 18.3545 26.3816C18.4391 26.3351 18.5321 26.2969 18.566 26.2969C18.5999 26.2969 18.6295 26.2758 18.6295 26.2547C18.6295 26.2293 18.6675 26.2124 18.7141 26.2124C18.7607 26.2124 18.7987 26.1912 18.7987 26.1701C18.7987 26.1447 18.8368 26.1278 18.8834 26.1278C18.9299 26.1278 18.968 26.1066 18.968 26.0854C18.968 26.06 19.0061 26.0431 19.0526 26.0431C19.0992 26.0431 19.1372 26.022 19.1372 26.0008C19.1372 25.9754 19.1753 25.9585 19.2219 25.9585C19.2684 25.9585 19.3065 25.9416 19.3065 25.9247C19.3065 25.9035 19.4038 25.8443 19.518 25.7893C19.6366 25.7342 19.7296 25.675 19.7296 25.6538C19.7296 25.6369 19.7677 25.62 19.8143 25.62C19.8608 25.62 19.8989 25.6031 19.8989 25.5862C19.8989 25.565 19.9496 25.5227 20.0174 25.4888C20.0809 25.455 20.1696 25.3957 20.212 25.3534C20.2585 25.3154 20.3178 25.2815 20.3432 25.2815C20.3685 25.2815 20.4151 25.2434 20.4489 25.1969C20.4828 25.1503 20.5293 25.1122 20.5547 25.1122C20.5801 25.1122 20.6393 25.0784 20.6859 25.0361C20.7282 24.9938 20.8339 24.9134 20.9143 24.8583C20.9948 24.8033 21.1344 24.6849 21.219 24.596C21.3036 24.5072 21.3925 24.4352 21.4137 24.4352C21.4687 24.4352 22.2896 23.6186 22.5222 23.3351C22.6281 23.2082 22.7634 23.0516 22.8269 22.9881C22.8946 22.9289 22.9454 22.8612 22.9454 22.8358C22.9454 22.8146 23.0046 22.7385 23.0723 22.6666C23.1442 22.5904 23.1993 22.5185 23.1993 22.5015C23.1993 22.4804 23.2585 22.4 23.3262 22.3196C23.3939 22.2392 23.4531 22.1546 23.4531 22.1377C23.4531 22.1208 23.4912 22.0657 23.5378 22.015C23.5844 21.9641 23.6224 21.8965 23.6224 21.8668C23.6224 21.8372 23.6436 21.8119 23.6647 21.8119C23.69 21.8119 23.7071 21.7864 23.7071 21.7569C23.7071 21.7272 23.7451 21.6595 23.7916 21.6087C23.8382 21.5579 23.8762 21.4903 23.8762 21.4564C23.8762 21.4226 23.889 21.3887 23.9102 21.3802C23.9397 21.3676 24.0539 21.1645 24.2655 20.7329C24.3333 20.5932 24.4052 20.4451 24.4306 20.407C24.4517 20.3647 24.4686 20.3013 24.4686 20.2674C24.4686 20.2336 24.4898 20.2039 24.511 20.2039C24.5364 20.2039 24.5533 20.1658 24.5533 20.1193C24.5533 20.0728 24.5745 20.0347 24.5998 20.0347C24.6294 20.0347 24.6379 20.0897 24.6209 20.1913Z" fill="white"/>
<path d="M27.6926 23.3985C27.6165 24.0078 27.5276 24.5198 27.4303 24.9006C27.4049 25.0063 27.371 25.1544 27.3583 25.2264C27.3456 25.3026 27.3202 25.3661 27.299 25.3661C27.2779 25.3661 27.261 25.4084 27.261 25.4591C27.261 25.5564 27.1933 25.8018 27.1299 25.9245C27.1087 25.9669 27.0918 26.0388 27.0918 26.0811C27.0918 26.1277 27.0748 26.1742 27.0579 26.1869C27.041 26.1996 26.9987 26.3053 26.9648 26.4197C26.9352 26.5381 26.8928 26.6354 26.8717 26.6354C26.8548 26.6354 26.8379 26.6651 26.8379 26.6989C26.8379 26.7327 26.8209 26.8004 26.7955 26.847C26.7744 26.8935 26.7363 26.9696 26.7109 27.0162C26.6897 27.0628 26.6686 27.1306 26.6686 27.1645C26.6686 27.198 26.6517 27.2277 26.6264 27.2277C26.6052 27.2277 26.584 27.2659 26.584 27.3125C26.584 27.359 26.5671 27.3971 26.5417 27.3971C26.5205 27.3971 26.4994 27.4351 26.4994 27.4816C26.4994 27.5282 26.4825 27.5663 26.4571 27.5663C26.4359 27.5663 26.4147 27.5918 26.4147 27.6214C26.4147 27.6974 26.3132 27.9047 26.2794 27.9047C26.2582 27.9047 26.2455 27.9429 26.2455 27.9894C26.2455 28.036 26.2328 28.0742 26.2116 28.0742C26.1947 28.0742 26.1482 28.1459 26.1101 28.2391C26.072 28.3278 26.0128 28.4294 25.9831 28.4634C25.9536 28.493 25.9027 28.5648 25.8774 28.6156C25.8478 28.6665 25.797 28.7512 25.7716 28.8017C25.7419 28.8526 25.6827 28.9331 25.6447 28.9796C25.6023 29.026 25.5685 29.0853 25.5685 29.1107C25.5685 29.1362 25.5305 29.1827 25.4839 29.2166C25.4373 29.2502 25.3992 29.2969 25.3992 29.3222C25.3992 29.3476 25.3654 29.4069 25.3231 29.4536C25.2808 29.4957 25.2046 29.6016 25.1454 29.6821C25.0903 29.7623 25.0142 29.8597 24.9761 29.8936C24.938 29.9273 24.8619 30.0247 24.8068 30.1052C24.6841 30.2785 23.2625 31.713 23.2117 31.713C23.1948 31.713 23.0974 31.7891 22.9959 31.8822C22.8986 31.9754 22.8012 32.0514 22.7801 32.0514C22.7631 32.0514 22.6912 32.1022 22.6235 32.17C22.5559 32.2333 22.4458 32.3095 22.3823 32.3434C22.3189 32.3773 22.2681 32.4196 22.2681 32.4405C22.2681 32.4576 22.2427 32.4745 22.2131 32.4745C22.1835 32.4745 22.12 32.5084 22.0734 32.5465C21.993 32.6185 21.9423 32.6481 21.7095 32.7834C21.6546 32.8088 21.6038 32.8428 21.5911 32.8555C21.5487 32.8978 21.3161 33.0289 21.2441 33.0543C21.2018 33.067 21.168 33.0924 21.168 33.1136C21.168 33.1345 21.1299 33.1514 21.0833 33.1514C21.0368 33.1514 20.9987 33.1684 20.9987 33.1938C20.9987 33.215 20.9606 33.2362 20.9141 33.2362C20.8675 33.2362 20.8295 33.2531 20.8295 33.2786C20.8295 33.2997 20.7914 33.3209 20.7449 33.3209C20.6983 33.3209 20.6602 33.3379 20.6602 33.363C20.6602 33.3842 20.6348 33.4054 20.601 33.4054C20.5502 33.4054 20.4148 33.4647 20.1017 33.6211C20.0594 33.6423 19.9959 33.6593 19.9621 33.6593C19.9282 33.6593 19.8986 33.6762 19.8986 33.7016C19.8986 33.7228 19.8436 33.744 19.7716 33.744C19.7039 33.744 19.6447 33.7609 19.6447 33.7779C19.6447 33.7949 19.5559 33.8327 19.4458 33.8623C19.3316 33.8963 19.2089 33.9386 19.1708 33.9597C19.1285 33.9809 19.0481 33.9979 18.9931 33.9979C18.9338 33.9979 18.8746 34.0149 18.8619 34.0402C18.8493 34.0611 18.773 34.0823 18.6926 34.0823C18.6123 34.0823 18.5404 34.0993 18.5276 34.1204C18.5149 34.1416 18.4431 34.1713 18.3668 34.184C18.2907 34.2009 18.1342 34.2306 18.0157 34.2561C17.3641 34.3871 17.0509 34.4252 16.1454 34.4887L15.752 34.5139V30.7906L15.8493 30.7609C15.9381 30.7271 16.0312 30.7059 16.4924 30.6169C16.6109 30.596 16.7886 30.5537 16.8944 30.5282C17.0002 30.5028 17.1483 30.4689 17.2244 30.4562C17.2963 30.4435 17.3598 30.4181 17.3598 30.3969C17.3598 30.376 17.4021 30.359 17.4487 30.359C17.5291 30.359 17.9437 30.2404 18.1849 30.1475C18.2314 30.1264 18.3373 30.0924 18.4176 30.0628C18.498 30.0331 18.6081 29.995 18.6631 29.9738C18.7138 29.9526 18.7985 29.919 18.8534 29.8978C19.01 29.8385 19.1961 29.758 19.2724 29.7199C19.3147 29.6987 19.3781 29.6821 19.412 29.6821C19.4458 29.6821 19.4755 29.6609 19.4755 29.6397C19.4755 29.6143 19.5135 29.5973 19.5601 29.5973C19.6066 29.5973 19.6447 29.5762 19.6447 29.555C19.6447 29.5295 19.6827 29.5126 19.7293 29.5126C19.7759 29.5126 19.814 29.4914 19.814 29.4702C19.814 29.4451 19.852 29.4281 19.8944 29.4281C19.9409 29.4281 19.9833 29.4155 19.9916 29.3943C20.0044 29.3688 20.2244 29.2417 20.4782 29.115C20.5332 29.0895 20.5756 29.0557 20.5756 29.0345C20.5756 29.0175 20.6136 29.0048 20.6602 29.0048C20.7068 29.0048 20.7449 28.9881 20.7449 28.9712C20.7449 28.95 20.7956 28.9076 20.8633 28.8738C20.9268 28.8398 21.0157 28.7805 21.058 28.7384C21.1045 28.7003 21.168 28.6665 21.1976 28.6665C21.2272 28.6665 21.2526 28.6453 21.2526 28.6241C21.2526 28.5986 21.278 28.5817 21.3076 28.5817C21.3373 28.5817 21.4007 28.5479 21.4472 28.5058C21.4895 28.4634 21.5953 28.3829 21.6757 28.3278C21.7561 28.273 21.8491 28.201 21.8788 28.1713C21.9126 28.1417 22.0058 28.0615 22.0904 27.9979C22.2977 27.8456 23.5375 26.5973 23.5375 26.5423C23.5375 26.5212 23.5967 26.445 23.6644 26.3816C23.7363 26.3181 23.7914 26.2461 23.7914 26.2249C23.7914 26.208 23.8506 26.1234 23.9183 26.043C23.986 25.9626 24.0452 25.8696 24.0452 25.8399C24.0452 25.8146 24.0621 25.7892 24.079 25.7892C24.1002 25.7892 24.1425 25.7384 24.1765 25.6707C24.2103 25.6072 24.2441 25.548 24.2568 25.5352C24.2991 25.4929 24.4303 25.2602 24.4557 25.1841C24.4683 25.146 24.4938 25.1121 24.5149 25.1121C24.5361 25.1121 24.553 25.0741 24.553 25.0275C24.553 24.981 24.5741 24.9429 24.5953 24.9429C24.6207 24.9429 24.6376 24.9049 24.6376 24.8583C24.6376 24.8117 24.6588 24.7737 24.68 24.7737C24.7053 24.7737 24.7223 24.7356 24.7223 24.689C24.7223 24.6424 24.7434 24.6044 24.7646 24.6044C24.7899 24.6044 24.8068 24.5663 24.8068 24.5198C24.8068 24.4733 24.828 24.4352 24.8491 24.4352C24.8746 24.4352 24.8915 24.4055 24.8915 24.3717C24.8915 24.3379 24.9084 24.2744 24.9295 24.2321C24.9507 24.194 24.9888 24.1009 25.0184 24.0332C25.0481 23.9612 25.0862 23.8724 25.1073 23.8343C25.1285 23.792 25.1454 23.7201 25.1454 23.6735C25.1454 23.627 25.1665 23.5889 25.1877 23.5889C25.213 23.5889 25.23 23.5296 25.23 23.462C25.23 23.39 25.2511 23.335 25.2723 23.335C25.2977 23.335 25.3146 23.28 25.3146 23.2123C25.3146 23.1404 25.3357 23.0727 25.3569 23.06C25.3823 23.0473 25.3992 22.9669 25.3992 22.8865C25.3992 22.8061 25.4161 22.7426 25.4373 22.7426C25.4585 22.7426 25.4839 22.6622 25.4965 22.5607C25.5093 22.4634 25.5431 22.2772 25.5685 22.1503C25.5939 22.0234 25.6361 21.7737 25.6616 21.6002C25.725 21.1813 25.7208 18.888 25.6616 18.4479C25.632 18.2618 25.6023 18.0121 25.5854 17.8979C25.5728 17.7793 25.5431 17.6694 25.5219 17.644C25.5008 17.6228 25.4839 17.5339 25.4839 17.4493C25.4839 17.3604 25.467 17.2758 25.4415 17.2632C25.4204 17.2504 25.3992 17.1743 25.3992 17.0939C25.3992 17.0135 25.3823 16.9373 25.3569 16.9247C25.3357 16.9119 25.3146 16.8443 25.3146 16.7766C25.3146 16.7088 25.2977 16.6412 25.2723 16.6284C25.2511 16.6158 25.23 16.548 25.23 16.4846C25.23 16.4211 25.213 16.3534 25.1961 16.3323C25.175 16.3069 25.1157 16.1461 25.0608 15.9727C25.0015 15.7991 24.9465 15.6468 24.9295 15.6341C24.9169 15.6214 24.8788 15.5241 24.845 15.4098C24.8153 15.2998 24.773 15.211 24.7561 15.211C24.7392 15.211 24.7223 15.1729 24.7223 15.1263C24.7223 15.0798 24.7053 15.0418 24.68 15.0418C24.6588 15.0418 24.6376 15.0164 24.6376 14.9824C24.6376 14.9105 24.4599 14.5593 24.4176 14.5424C24.3965 14.534 24.3837 14.4917 24.3837 14.4451C24.3837 14.4028 24.3668 14.3647 24.3414 14.3647C24.3202 14.3647 24.2991 14.3267 24.2991 14.2801C24.2991 14.2335 24.2822 14.1955 24.261 14.1955C24.2398 14.1955 24.2145 14.1616 24.2018 14.1193C24.1679 14.022 24.0326 13.7977 23.9945 13.7808C23.9734 13.7723 23.9606 13.73 23.9606 13.6835C23.9606 13.6412 23.9437 13.6031 23.9268 13.6031C23.9056 13.6031 23.8633 13.5523 23.8295 13.4846C23.7955 13.4212 23.7363 13.3408 23.6983 13.3026C23.6559 13.2646 23.6221 13.2181 23.6221 13.1969C23.6221 13.1758 23.5629 13.0911 23.4951 13.0107C23.3809 12.8753 23.3301 12.7568 23.3893 12.7568C23.4021 12.7568 23.4782 12.8203 23.5544 12.8923C23.6348 12.9684 23.7744 13.1038 23.8633 13.1884C23.9563 13.2773 24.0452 13.3492 24.0621 13.3492C24.0961 13.3492 24.3202 13.582 24.553 13.857C24.6334 13.9543 24.7772 14.115 24.8703 14.2124C24.9634 14.3055 25.0862 14.4536 25.1454 14.534C25.2004 14.6144 25.2596 14.6905 25.2723 14.7032C25.285 14.716 25.3443 14.7921 25.3992 14.8725C25.4542 14.9529 25.5262 15.0459 25.5558 15.0756C25.5854 15.1052 25.6108 15.1475 25.6108 15.1644C25.6108 15.1814 25.6573 15.2533 25.7166 15.321C25.7759 15.3886 25.8223 15.469 25.8223 15.4945C25.8223 15.5241 25.8435 15.5494 25.8647 15.5494C25.8901 15.5494 25.907 15.5748 25.907 15.6045C25.907 15.6341 25.945 15.7018 25.9916 15.7525C26.0382 15.8034 26.0763 15.8711 26.0763 15.9092C26.0763 15.943 26.0932 15.9727 26.1101 15.9727C26.127 15.9727 26.1905 16.0657 26.2497 16.1842C26.3047 16.2984 26.364 16.3958 26.3851 16.3958C26.4021 16.3958 26.4147 16.4338 26.4147 16.4803C26.4147 16.5269 26.4359 16.565 26.4571 16.565C26.4825 16.565 26.4994 16.603 26.4994 16.6496C26.4994 16.6962 26.5205 16.7342 26.5417 16.7342C26.5671 16.7342 26.584 16.7723 26.584 16.8189C26.584 16.8654 26.6052 16.9035 26.6264 16.9035C26.6517 16.9035 26.6686 16.9288 26.6686 16.9585C26.6686 16.9881 26.7067 17.0939 26.7532 17.1912C26.7998 17.2843 26.8379 17.3943 26.8379 17.4324C26.8379 17.4663 26.8548 17.4958 26.8717 17.4958C26.8928 17.4958 26.9352 17.589 26.9648 17.7074C26.9944 17.8216 27.0367 17.9189 27.0579 17.9189C27.0748 17.9189 27.0918 17.974 27.0918 18.0459C27.0918 18.1136 27.113 18.1729 27.1341 18.1729C27.1594 18.1729 27.1763 18.2195 27.1763 18.2787C27.1763 18.3379 27.1933 18.4183 27.2145 18.4606C27.2738 18.5833 27.3456 18.8288 27.3456 18.9261C27.3456 18.9725 27.3668 19.0276 27.388 19.0403C27.4134 19.0529 27.4303 19.1292 27.4303 19.2096C27.4303 19.2899 27.4514 19.3661 27.4726 19.3787C27.498 19.3915 27.5149 19.4888 27.5149 19.5904C27.5149 19.6919 27.5361 19.7892 27.5572 19.8019C27.5825 19.8146 27.5995 19.9373 27.5995 20.0727C27.5995 20.2081 27.6165 20.3308 27.6376 20.3562C27.7392 20.462 27.7815 22.7131 27.6926 23.3985Z" fill="white"/>
<path d="M32.7577 23.9066C32.7365 24.0463 32.7068 24.2409 32.6941 24.3382C32.6772 24.4397 32.6517 24.5201 32.6306 24.5201C32.6094 24.5201 32.5924 24.5793 32.5924 24.6556C32.5924 24.7867 32.5334 25.0236 32.4613 25.1633C32.4402 25.2056 32.4232 25.286 32.4232 25.3453C32.4232 25.4045 32.4063 25.451 32.3809 25.451C32.3597 25.451 32.3386 25.5061 32.3386 25.5779C32.3386 25.6457 32.3216 25.7049 32.2965 25.7049C32.2753 25.7049 32.2541 25.7599 32.2541 25.8319C32.2541 25.8995 32.2371 25.9588 32.2117 25.9588C32.1906 25.9588 32.1694 25.9884 32.1694 26.0222C32.1694 26.056 32.1524 26.1238 32.127 26.1704C32.1058 26.2169 32.068 26.2931 32.0425 26.3395C32.0213 26.3861 32.0002 26.4539 32.0002 26.4877C32.0002 26.5215 31.9832 26.5512 31.9578 26.5512C31.9366 26.5512 31.9154 26.5766 31.9154 26.6104C31.9154 26.6865 31.4923 27.5244 31.4161 27.6049C31.3825 27.6384 31.3444 27.647 31.3316 27.626C31.3147 27.6049 31.2597 27.5625 31.2088 27.5329C31.154 27.5074 31.0693 27.4566 31.0185 27.427C30.9633 27.4015 30.9128 27.3679 30.9001 27.3552C30.8578 27.3128 30.625 27.1815 30.553 27.1563C30.5107 27.1437 30.477 27.1182 30.477 27.097C30.477 27.0759 30.4389 27.0589 30.3923 27.0589C30.3457 27.0589 30.3076 27.042 30.3076 27.0208C30.3076 26.9996 30.2736 26.9742 30.2358 26.9616C30.1341 26.9277 29.9098 26.7923 29.8929 26.75C29.8845 26.7331 29.8421 26.7204 29.7958 26.7204C29.7534 26.7204 29.7153 26.7035 29.7153 26.6824C29.7153 26.6612 29.6814 26.6358 29.6433 26.6231C29.5419 26.5892 29.3177 26.4539 29.3006 26.4115C29.2922 26.3946 29.2498 26.3819 29.2032 26.3819C29.1608 26.3819 29.1227 26.365 29.1227 26.3438C29.1227 26.3226 29.0891 26.2973 29.051 26.2846C28.9748 26.2592 28.742 26.128 28.6997 26.0857C28.687 26.0731 28.6364 26.0391 28.5856 26.0096C28.1836 25.7896 28.1877 25.7937 28.2512 25.6076C28.2809 25.523 28.3147 25.4383 28.3316 25.4257C28.3486 25.4087 28.3613 25.3579 28.3613 25.3156C28.3613 25.2733 28.3782 25.2056 28.3993 25.1633C28.4627 25.0406 28.5305 24.7952 28.5305 24.6979C28.5305 24.6471 28.5475 24.6048 28.5687 24.6048C28.5898 24.6048 28.6152 24.5413 28.628 24.4651C28.6406 24.3932 28.6742 24.2451 28.6997 24.1393C28.7251 24.0335 28.759 23.877 28.7717 23.7881C28.7844 23.7035 28.8098 23.6189 28.831 23.6061C28.8522 23.5935 28.8691 23.5046 28.8691 23.403C28.8691 23.3015 28.8861 23.2084 28.907 23.1873C28.9282 23.1619 28.9578 23.0308 28.9705 22.8911C28.9832 22.7515 29.0171 22.4638 29.0425 22.2564C29.1061 21.7825 29.1061 19.8785 29.0425 19.4215C29.0171 19.2353 28.9875 18.9772 28.9705 18.8502C28.9578 18.7234 28.9282 18.6006 28.907 18.5752C28.8861 18.5541 28.8691 18.4652 28.8691 18.3805C28.8691 18.2917 28.8522 18.2071 28.8268 18.1944C28.8056 18.1817 28.7844 18.1055 28.7844 18.0251C28.7844 17.9448 28.7675 17.8686 28.742 17.8558C28.7208 17.8432 28.6997 17.7882 28.6997 17.7374C28.6997 17.6358 28.6068 17.3439 28.5601 17.3016C28.5432 17.2847 28.5305 17.2255 28.5305 17.1704C28.5305 17.1197 28.5135 17.0731 28.4882 17.0731C28.467 17.0731 28.4458 17.0139 28.4458 16.9461C28.4458 16.8742 28.429 16.8193 28.4036 16.8193C28.3824 16.8193 28.3613 16.7896 28.3613 16.7558C28.3613 16.7219 28.3444 16.6542 28.3189 16.6077C28.2978 16.5611 28.2597 16.4849 28.2343 16.4384C28.2131 16.3919 28.192 16.3242 28.192 16.2904C28.192 16.2564 28.1751 16.2269 28.1496 16.2269C28.1285 16.2269 28.1073 16.1888 28.1073 16.1422C28.1073 16.0956 28.0904 16.0576 28.0651 16.0576C28.044 16.0576 28.0228 16.0195 28.0228 15.9772C28.0228 15.9306 28.01 15.8884 27.9931 15.8799C27.972 15.8714 27.9127 15.7783 27.8578 15.6641C27.8027 15.5541 27.7393 15.4652 27.7181 15.4652C27.7011 15.4652 27.6842 15.4271 27.6842 15.3806C27.6842 15.3341 27.6673 15.296 27.6419 15.296C27.6207 15.296 27.5996 15.2706 27.5996 15.241C27.5996 15.2114 27.5615 15.1436 27.515 15.0929C27.4685 15.0421 27.4304 14.9871 27.4304 14.9702C27.4304 14.9533 27.3712 14.8686 27.3034 14.7882C27.2357 14.7078 27.1765 14.6232 27.1765 14.6021C27.1765 14.5809 27.1426 14.5343 27.1003 14.4962C27.058 14.4582 26.9819 14.3651 26.9269 14.289C26.8253 14.1451 26.1779 13.4512 25.996 13.2904C25.9409 13.2438 25.8141 13.1253 25.7209 13.0323C25.6236 12.9391 25.4797 12.8164 25.3993 12.7572C25.319 12.7022 25.2428 12.643 25.2301 12.6302C25.2174 12.6176 25.1412 12.5583 25.0609 12.5034C24.9805 12.4483 24.8873 12.3764 24.8578 12.3467C24.8281 12.3172 24.7477 12.2622 24.6801 12.2199C24.6081 12.1818 24.5531 12.131 24.5531 12.1141C24.5531 12.0972 24.515 12.0803 24.4685 12.0803C24.4219 12.0803 24.3838 12.0632 24.3838 12.0463C24.3838 12.0252 24.3331 11.9829 24.2696 11.949C24.2019 11.9152 24.1426 11.8813 24.13 11.8686C24.0877 11.8263 23.8549 11.6952 23.783 11.6698C23.7407 11.657 23.7069 11.6317 23.7069 11.6106C23.7069 11.5894 23.6688 11.5725 23.6222 11.5725C23.5757 11.5725 23.5376 11.5513 23.5376 11.5302C23.5376 11.5048 23.4995 11.4879 23.4529 11.4879C23.4065 11.4879 23.3683 11.4667 23.3683 11.4455C23.3683 11.4201 23.3302 11.4032 23.2838 11.4032C23.2372 11.4032 23.1991 11.382 23.1991 11.3609C23.1991 11.3355 23.161 11.3186 23.1145 11.3186C23.0679 11.3186 23.0298 11.2974 23.0298 11.2762C23.0298 11.2509 22.9917 11.2339 22.9452 11.2339C22.8987 11.2339 22.8606 11.217 22.8606 11.2001C22.8606 11.1789 22.7675 11.1366 22.649 11.107C22.5348 11.0774 22.4374 11.0351 22.4374 11.0139C22.4374 10.997 22.3993 10.9801 22.357 10.9801C22.3106 10.9801 22.2597 10.9589 22.2471 10.9378C22.2343 10.9124 22.1751 10.8954 22.1159 10.8954C22.0609 10.8954 22.0143 10.8743 22.0143 10.8531C22.0143 10.8277 21.9678 10.8108 21.9127 10.8108C21.8535 10.8108 21.7943 10.7896 21.7816 10.7685C21.7689 10.7432 21.7096 10.7262 21.6547 10.7262C21.5997 10.7262 21.5405 10.705 21.5277 10.6839C21.5151 10.6585 21.4473 10.6416 21.3754 10.6416C21.3077 10.6416 21.2527 10.6204 21.2527 10.5993C21.2527 10.5739 21.1977 10.557 21.1258 10.557C21.0581 10.557 20.9988 10.5358 20.9988 10.5146C20.9988 10.4892 20.9227 10.4723 20.8339 10.4723C20.7449 10.4723 20.6561 10.4554 20.6434 10.4343C20.6307 10.4131 20.5461 10.3877 20.4615 10.3708C20.3726 10.3581 20.178 10.3284 20.0256 10.303C19.3825 10.1973 19.0102 10.1677 17.9143 10.1508C17.1272 10.1339 16.7422 10.1422 16.7125 10.1719C16.6533 10.2311 16.3867 10.2311 16.3867 10.1762C16.3867 10.1508 16.4164 10.1339 16.4502 10.1339C16.484 10.1339 16.5137 10.1127 16.5137 10.0915C16.5137 10.0661 16.5729 10.0492 16.6407 10.0492C16.7125 10.0492 16.7675 10.028 16.7675 10.0069C16.7675 9.98152 16.8226 9.9646 16.8902 9.9646C16.9622 9.9646 17.0299 9.94341 17.0426 9.92222C17.0553 9.89684 17.1145 9.87992 17.1696 9.87992C17.2245 9.87992 17.2838 9.85883 17.2964 9.83763C17.3092 9.81226 17.3896 9.79534 17.47 9.79534C17.5504 9.79534 17.6138 9.77415 17.6138 9.75295C17.6138 9.72758 17.69 9.71069 17.7788 9.71069C17.8677 9.71069 17.9566 9.69377 17.9692 9.67262C17.9819 9.6557 18.0834 9.62608 18.1935 9.60916C18.3077 9.59644 18.5024 9.56261 18.6293 9.54143C18.7562 9.51607 19.0566 9.47797 19.2978 9.45681C19.5391 9.4399 19.7463 9.41027 19.7632 9.39335C19.8014 9.35527 21.5193 9.40182 21.9931 9.45257C22.2048 9.47797 22.4967 9.51607 22.649 9.54143C22.8013 9.56682 23.0003 9.59644 23.0933 9.60916C23.1864 9.62184 23.2795 9.65146 23.3049 9.67262C23.3261 9.69377 23.4065 9.71069 23.4784 9.71069C23.5545 9.71069 23.6306 9.72758 23.6434 9.75295C23.656 9.77415 23.7238 9.79534 23.7915 9.79534C23.8591 9.79534 23.9269 9.81226 23.9395 9.83763C23.9523 9.85883 24.0199 9.87992 24.0919 9.87992C24.1595 9.87992 24.2146 9.89684 24.2146 9.92222C24.2146 9.94341 24.2739 9.9646 24.3415 9.9646C24.4135 9.9646 24.4685 9.98152 24.4685 10.0069C24.4685 10.028 24.5065 10.0492 24.5531 10.0492C24.5997 10.0492 24.6758 10.0661 24.7224 10.0915C24.7689 10.1127 24.8451 10.1508 24.8916 10.1762C24.9381 10.1973 25.0143 10.2185 25.0609 10.2185C25.1074 10.2185 25.1455 10.2354 25.1455 10.2607C25.1455 10.2819 25.1751 10.303 25.209 10.303C25.2471 10.303 25.357 10.3411 25.4502 10.3877C25.5475 10.4343 25.6533 10.4723 25.6828 10.4723C25.7125 10.4723 25.7378 10.4892 25.7378 10.5146C25.7378 10.5358 25.776 10.557 25.8225 10.557C25.869 10.557 25.9071 10.5739 25.9071 10.5993C25.9071 10.6204 25.9452 10.6416 25.9917 10.6416C26.0383 10.6416 26.0764 10.6585 26.0764 10.6839C26.0764 10.705 26.1145 10.7262 26.161 10.7262C26.2075 10.7262 26.2456 10.7432 26.2456 10.7643C26.2456 10.7855 26.2795 10.8108 26.3218 10.8236C26.4191 10.8574 26.6434 10.9927 26.6603 11.0308C26.6687 11.052 26.7026 11.0647 26.7364 11.0647C26.7702 11.0647 26.838 11.1028 26.8888 11.1494C26.9395 11.1958 27.0073 11.2339 27.0368 11.2339C27.0665 11.2339 27.0919 11.2509 27.0919 11.2762C27.0919 11.2974 27.1172 11.3186 27.1469 11.3186C27.1723 11.3186 27.2654 11.3778 27.3457 11.4455C27.4261 11.5132 27.5192 11.5725 27.5488 11.5725C27.5743 11.5725 27.5996 11.5894 27.5996 11.6063C27.5996 11.6232 27.6547 11.674 27.7265 11.7121C27.7943 11.7544 27.8747 11.8094 27.9042 11.839C27.9339 11.8686 28.0269 11.9405 28.1073 11.9956C28.1877 12.0506 28.302 12.1479 28.3613 12.2071C28.4205 12.2664 28.5432 12.3679 28.6321 12.4356C28.848 12.5964 29.6221 13.3708 29.7831 13.5865C29.8505 13.6754 29.9481 13.7939 29.9989 13.8446C30.0495 13.8954 30.1426 14.0139 30.2104 14.0985C30.2736 14.1874 30.3626 14.2974 30.405 14.3397C30.4431 14.3863 30.477 14.4455 30.477 14.4709C30.477 14.4962 30.5149 14.5428 30.5614 14.5766C30.6081 14.6105 30.6462 14.657 30.6462 14.6824C30.6462 14.7078 30.68 14.7671 30.7221 14.8136C30.7603 14.856 30.8196 14.9448 30.8535 15.0083C30.8874 15.076 30.9297 15.1267 30.9507 15.1267C30.9676 15.1267 30.9845 15.1648 30.9845 15.2114C30.9845 15.2579 31.0015 15.296 31.0185 15.296C31.0397 15.296 31.082 15.3467 31.1159 15.4102C31.1497 15.4779 31.1834 15.5372 31.1961 15.5498C31.2173 15.571 31.3783 15.8672 31.467 16.0449C31.4923 16.0999 31.5263 16.1422 31.5475 16.1422C31.5644 16.1422 31.5771 16.1676 31.5771 16.2015C31.5771 16.248 31.6997 16.523 31.8773 16.87C31.8985 16.9123 31.9154 16.9758 31.9154 17.0096C31.9154 17.0435 31.9366 17.0731 31.9578 17.0731C31.9832 17.0731 32.0002 17.1112 32.0002 17.1535C32.0002 17.2001 32.0213 17.2508 32.0425 17.2635C32.068 17.2762 32.0849 17.3354 32.0849 17.3947C32.0849 17.4496 32.1058 17.4962 32.127 17.4962C32.1524 17.4962 32.1694 17.5512 32.1694 17.6232C32.1694 17.6909 32.1906 17.7501 32.2117 17.7501C32.2371 17.7501 32.2541 17.7966 32.2541 17.8517C32.2541 17.9109 32.2753 17.9702 32.2965 17.9828C32.3216 17.9955 32.3386 18.0548 32.3386 18.1098C32.3386 18.1648 32.3597 18.224 32.3809 18.2368C32.4063 18.2494 32.4232 18.3171 32.4232 18.3848C32.4232 18.4525 32.4444 18.5203 32.4656 18.5329C32.491 18.5455 32.508 18.626 32.508 18.7063C32.508 18.7867 32.5292 18.8502 32.5503 18.8502C32.5755 18.8502 32.5924 18.9222 32.5924 19.011C32.5924 19.0999 32.6094 19.1888 32.6306 19.2099C32.6687 19.2522 32.6941 19.4088 32.7449 19.8234C32.7577 19.9292 32.7828 20.0519 32.804 20.0985C32.8675 20.2465 32.9015 20.784 32.9015 21.8756C32.9056 22.8657 32.8803 23.2085 32.7577 23.9066Z" fill="white"/>
<path d="M33.2698 10.5945C33.2698 10.6918 33.2401 10.7298 33.143 10.7764C33.0752 10.806 33.0159 10.8441 33.0159 10.8611C33.0159 10.8822 32.978 10.8949 32.9314 10.8949C32.8849 10.8949 32.8468 10.9118 32.8468 10.9329C32.8468 10.9541 32.8128 10.9795 32.7747 10.9922C32.6733 11.0261 32.449 11.1614 32.4321 11.1995C32.4236 11.2207 32.3813 11.2333 32.3347 11.2333C32.2926 11.2333 32.2545 11.2504 32.2545 11.2715C32.2545 11.2926 32.2205 11.318 32.1824 11.3307C32.0807 11.3646 31.8565 11.4999 31.8395 11.538C31.8314 11.5591 31.789 11.5719 31.7424 11.5719C31.7 11.5719 31.6619 11.5888 31.6619 11.61C31.6619 11.6311 31.628 11.6565 31.5902 11.6692C31.5139 11.6946 31.2812 11.8257 31.2388 11.8681C31.2176 11.8892 30.9217 12.05 30.7437 12.1389C30.6889 12.1642 30.6465 12.1981 30.6465 12.215C30.6465 12.2362 30.6084 12.2489 30.5618 12.2489C30.5153 12.2489 30.4771 12.2658 30.4771 12.2869C30.4771 12.3081 30.4223 12.3462 30.3503 12.3758C30.2825 12.4055 30.2235 12.4436 30.2235 12.4647C30.2235 12.5197 30.0963 12.5112 30.037 12.4477C30.0117 12.4224 29.9399 12.3292 29.8849 12.2489C29.7495 12.0542 28.4673 10.7764 28.2769 10.641C28.1965 10.586 28.0823 10.4887 28.0231 10.4294C27.9639 10.3702 27.8496 10.2729 27.7692 10.2179C27.6888 10.1586 27.583 10.0825 27.5408 10.0401C27.4942 9.99784 27.4392 9.96401 27.418 9.96401C27.3969 9.96401 27.3461 9.93017 27.308 9.88778C27.2699 9.84977 27.1895 9.79047 27.1261 9.75663C27.0583 9.7228 27.0076 9.6805 27.0076 9.65934C27.0076 9.64243 26.9822 9.6255 26.9526 9.6255C26.923 9.6255 26.8595 9.59164 26.813 9.54933C26.7707 9.51126 26.6818 9.45201 26.6183 9.41817C26.5506 9.38431 26.4998 9.342 26.4998 9.32084C26.4998 9.30393 26.4618 9.28698 26.4194 9.28698C26.3729 9.28698 26.3305 9.2743 26.3221 9.25315C26.301 9.2066 26.1063 9.1008 25.6536 8.88503C25.4336 8.77923 25.2177 8.67345 25.1797 8.65229C25.1373 8.62691 25.0738 8.60999 25.04 8.60999C25.0062 8.60999 24.9766 8.59307 24.9766 8.57613C24.9766 8.55497 24.8835 8.51266 24.765 8.48304C24.6507 8.45344 24.5534 8.41112 24.5534 8.38995C24.5534 8.37302 24.5069 8.35611 24.4519 8.35611C24.3926 8.35611 24.3334 8.33495 24.3208 8.31381C24.308 8.28841 24.2488 8.27149 24.1938 8.27149C24.1388 8.27149 24.0795 8.25034 24.0668 8.22915C24.0542 8.20379 23.9864 8.18685 23.9146 8.18685C23.8468 8.18685 23.7918 8.16993 23.7918 8.14878C23.7918 8.12762 23.7284 8.10223 23.6564 8.08955C23.5802 8.07684 23.4321 8.043 23.3264 8.01762C23.2206 7.99222 23.0598 7.95836 22.9667 7.94991C22.8736 7.93721 22.7594 7.91181 22.7128 7.89067C22.5478 7.81873 22.1035 7.79337 20.978 7.78913C20.2587 7.78913 19.734 7.80604 19.5606 7.83567C19.0697 7.92876 18.8666 7.97107 18.6931 8.01338C18.6 8.03876 18.4689 8.0684 18.3969 8.08107C18.3292 8.09799 18.2319 8.12339 18.1854 8.14454C18.1388 8.16146 18.0161 8.19956 17.9103 8.22915C17.8045 8.25455 17.6861 8.29688 17.648 8.31803C17.6057 8.33919 17.5422 8.35611 17.5084 8.35611C17.4745 8.35611 17.4449 8.37302 17.4449 8.39842C17.4449 8.41957 17.4068 8.44073 17.3645 8.44073C17.3179 8.44073 17.2672 8.45767 17.2545 8.48304C17.2418 8.50419 17.1826 8.52537 17.1233 8.52537C17.0683 8.52537 17.0218 8.54229 17.0218 8.56768C17.0218 8.58884 16.9964 8.60999 16.9668 8.60999C16.9076 8.60999 16.6536 8.72 16.3659 8.87232C16.2728 8.9231 16.1205 8.99927 16.0274 9.04581C15.9343 9.09235 15.854 9.14314 15.8455 9.16429C15.837 9.18544 15.7947 9.20237 15.7481 9.20237C15.7058 9.20237 15.6678 9.21928 15.6678 9.24044C15.6678 9.26159 15.6339 9.28698 15.5958 9.29969C15.5196 9.32508 15.287 9.45624 15.2446 9.49856C15.2319 9.51126 15.1727 9.54509 15.1092 9.57896C15.0415 9.61279 14.9907 9.6551 14.9907 9.67626C14.9907 9.6932 14.9654 9.71012 14.9315 9.71012C14.9019 9.71012 14.8173 9.76509 14.7453 9.83703C14.6692 9.9047 14.593 9.96401 14.5761 9.96401C14.555 9.96401 14.483 10.0148 14.4111 10.0782C14.3433 10.1459 14.2037 10.2644 14.1022 10.3448C13.8314 10.5564 13.5479 10.8187 13.1544 11.2292C12.9639 11.4238 12.7524 11.6438 12.6847 11.7158C12.6128 11.7877 12.5113 11.9146 12.452 11.995C12.3969 12.0754 12.3165 12.1727 12.2742 12.2108C12.232 12.2489 12.1981 12.2954 12.1981 12.3166C12.1981 12.3377 12.1474 12.4096 12.0796 12.4816C12.0161 12.5493 11.94 12.6593 11.9062 12.7228C11.8723 12.7905 11.83 12.8413 11.8088 12.8413C11.7919 12.8413 11.775 12.8667 11.775 12.8962C11.775 12.9259 11.7411 12.9894 11.7031 13.0359C11.6607 13.0782 11.6015 13.1671 11.5677 13.2306C11.5338 13.2982 11.4915 13.349 11.4703 13.349C11.4534 13.349 11.4365 13.3871 11.4365 13.4337C11.4365 13.4801 11.4238 13.5183 11.4069 13.5183C11.3857 13.5183 11.3518 13.5605 11.3265 13.6156C11.1995 13.8694 11.0726 14.0895 11.0472 14.1022C11.0261 14.1106 11.0134 14.1529 11.0134 14.1995C11.0134 14.2418 10.9964 14.2799 10.971 14.2799C10.9499 14.2799 10.9287 14.318 10.9287 14.3645C10.9287 14.411 10.9118 14.4492 10.8864 14.4492C10.8653 14.4492 10.8441 14.4788 10.8441 14.5126C10.8441 14.5465 10.8272 14.61 10.806 14.6523C10.7849 14.6903 10.751 14.7622 10.7341 14.8088C10.7087 14.8723 10.696 14.8426 10.6833 14.6861C10.6749 14.5719 10.6875 14.4661 10.7087 14.4533C10.7299 14.4407 10.7595 14.3518 10.7722 14.2587C10.7849 14.1657 10.8187 14.0049 10.8441 13.8991C10.8695 13.7933 10.9033 13.6452 10.916 13.569C10.9287 13.4972 10.9541 13.4337 10.9753 13.4337C10.9964 13.4337 11.0134 13.3744 11.0134 13.3067C11.0134 13.2348 11.0345 13.1797 11.0557 13.1797C11.081 13.1797 11.098 13.1205 11.098 13.0529C11.098 12.9809 11.1191 12.9259 11.1403 12.9259C11.1657 12.9259 11.1826 12.8878 11.1826 12.8413C11.1826 12.7947 11.1995 12.7185 11.2249 12.672C11.2503 12.6255 11.2884 12.5493 11.3095 12.5028C11.3349 12.4562 11.3518 12.3801 11.3518 12.3335C11.3518 12.2869 11.373 12.2489 11.3942 12.2489C11.4195 12.2489 11.4365 12.2108 11.4365 12.1642C11.4365 12.1177 11.4576 12.0797 11.4788 12.0797C11.5042 12.0797 11.5211 12.0543 11.5211 12.0246C11.5211 11.9908 11.5507 11.9019 11.5888 11.8215C11.813 11.3519 11.9654 11.0642 11.995 11.0642C12.0119 11.0642 12.0289 11.0261 12.0289 10.9795C12.0289 10.9329 12.0501 10.8949 12.0711 10.8949C12.0965 10.8949 12.1134 10.8653 12.1134 10.8314C12.1134 10.7933 12.1516 10.7256 12.1981 10.6749C12.2447 10.624 12.2827 10.5564 12.2827 10.5267C12.2827 10.4971 12.3039 10.4718 12.3251 10.4718C12.3505 10.4718 12.3674 10.4463 12.3674 10.4168C12.3674 10.3871 12.4054 10.3195 12.452 10.2686C12.4985 10.2179 12.5366 10.1628 12.5366 10.1459C12.5366 10.129 12.5959 10.0444 12.6635 9.96401C12.7313 9.8836 12.7905 9.79474 12.7905 9.77355C12.7905 9.74817 12.8286 9.70165 12.8751 9.66781C12.9216 9.63395 12.9598 9.58741 12.9598 9.56201C12.9598 9.54086 13.0486 9.42238 13.1544 9.30814C13.2644 9.18968 13.3998 9.02889 13.4633 8.94848C13.6113 8.74962 14.3518 8.01338 14.555 7.86527C14.6438 7.79757 14.7623 7.69604 14.8215 7.63678C14.8808 7.57755 14.995 7.48023 15.0754 7.42524C15.1557 7.36599 15.2616 7.28981 15.3039 7.2475C15.3505 7.2052 15.4097 7.17136 15.435 7.17136C15.4604 7.17136 15.507 7.13327 15.5408 7.08671C15.5746 7.04017 15.6212 7.0021 15.6466 7.0021C15.672 7.0021 15.7312 6.96826 15.7777 6.92593C15.82 6.88786 15.9089 6.82863 15.9767 6.79477C16.0401 6.76093 16.0909 6.71859 16.0909 6.69744C16.0909 6.68052 16.1205 6.6636 16.1544 6.6636C16.1924 6.6636 16.2602 6.6255 16.3109 6.57898C16.3617 6.53244 16.4294 6.49434 16.459 6.49434C16.4886 6.49434 16.514 6.48166 16.514 6.46051C16.514 6.44356 16.6113 6.38433 16.7256 6.32931C16.8441 6.27009 16.9371 6.20663 16.9371 6.18971C16.9371 6.17277 16.9752 6.15584 17.0218 6.15584C17.0683 6.15584 17.1064 6.1347 17.1064 6.11354C17.1064 6.08815 17.1318 6.07123 17.1614 6.07123C17.191 6.07123 17.3264 6.01621 17.466 5.94428C17.6057 5.87658 17.7538 5.81735 17.7961 5.81735C17.8342 5.81735 17.868 5.7962 17.868 5.77504C17.868 5.74965 17.9061 5.73271 17.9484 5.73271C17.995 5.73271 18.0457 5.71156 18.0585 5.6904C18.0711 5.66501 18.1303 5.64809 18.1896 5.64809C18.2446 5.64809 18.2911 5.63117 18.2911 5.61426C18.2911 5.59731 18.38 5.55924 18.4942 5.52961C18.6043 5.49577 18.727 5.45346 18.7651 5.43231C18.8074 5.41116 18.8793 5.39421 18.9216 5.39421C18.9682 5.39421 19.0189 5.37306 19.0316 5.3519C19.0443 5.32651 19.112 5.30959 19.1839 5.30959C19.2517 5.30959 19.3066 5.29267 19.3066 5.27152C19.3066 5.25036 19.3701 5.22498 19.4463 5.21227C19.5182 5.19958 19.6663 5.16572 19.7721 5.14034C19.8779 5.11494 20.0302 5.08111 20.1106 5.07263C20.1911 5.05995 20.2967 5.03456 20.3433 5.0134C20.4322 4.97533 20.6734 4.94147 21.1896 4.9034C21.3546 4.89069 21.5027 4.86109 21.5281 4.83991C21.5831 4.78915 23.9441 4.81875 24.3841 4.87801C24.5577 4.9034 24.7988 4.933 24.9131 4.94995C25.0316 4.96262 25.1627 4.99225 25.2093 5.0134C25.2558 5.03456 25.3701 5.05995 25.4631 5.07687C25.5563 5.08958 25.7043 5.11073 25.7932 5.12341C25.8779 5.14034 25.9625 5.16572 25.9752 5.18688C25.9878 5.20803 26.0513 5.22498 26.119 5.22498C26.1867 5.22498 26.2544 5.24189 26.2671 5.26729C26.2798 5.28843 26.3602 5.30959 26.4406 5.30959C26.521 5.30959 26.5845 5.32651 26.5845 5.3519C26.5845 5.37306 26.6394 5.39421 26.7072 5.39421C26.7791 5.39421 26.8468 5.41116 26.8595 5.43652C26.8722 5.45767 26.9314 5.47885 26.9907 5.47885C27.0457 5.47885 27.0922 5.49577 27.0922 5.52117C27.0922 5.54232 27.1303 5.56348 27.1769 5.56348C27.2233 5.56348 27.3037 5.58462 27.3588 5.61426C27.5619 5.71578 27.6 5.73271 27.6845 5.73271C27.7311 5.73271 27.7692 5.74965 27.7692 5.77504C27.7692 5.7962 27.8073 5.81735 27.8538 5.81735C27.9004 5.81735 27.9385 5.83427 27.9385 5.85966C27.9385 5.88081 27.9639 5.90196 27.9934 5.90196C28.0569 5.90196 28.7593 6.24893 28.7763 6.29124C28.7847 6.3124 28.8271 6.32511 28.8735 6.32511C28.9158 6.32511 28.954 6.34202 28.954 6.36742C28.954 6.38857 28.9921 6.40973 29.0387 6.40973C29.0852 6.40973 29.1231 6.42664 29.1231 6.45203C29.1231 6.47318 29.1485 6.49434 29.1782 6.49434C29.2078 6.49434 29.2756 6.53244 29.3262 6.57898C29.377 6.6255 29.4449 6.6636 29.483 6.6636C29.5168 6.6636 29.5465 6.68052 29.5465 6.69744C29.5465 6.71859 29.597 6.76093 29.6649 6.79477C29.7284 6.82863 29.8086 6.88786 29.8467 6.92593C29.8849 6.96826 29.9315 7.0021 29.9526 7.0021C29.9738 7.0021 30.0456 7.04864 30.1134 7.10787C30.1811 7.16713 30.2486 7.21367 30.2656 7.21367C30.2825 7.21367 30.3715 7.28137 30.4604 7.36175C30.5491 7.44216 30.6381 7.50986 30.6551 7.50986C30.6762 7.50986 30.7903 7.61139 30.9174 7.72987C31.04 7.85259 31.2134 8.02185 31.3066 8.10647C31.5859 8.36458 32.2375 9.06273 32.3431 9.21084C32.3982 9.28698 32.4533 9.35891 32.466 9.37162C32.4787 9.38431 32.5378 9.46047 32.5928 9.54086C32.6521 9.62127 32.7283 9.72708 32.7704 9.76937C32.8128 9.81594 32.8468 9.87933 32.8468 9.90898C32.8468 9.93863 32.8637 9.96401 32.8806 9.96401C32.9018 9.96401 32.9442 10.0148 32.978 10.0782C33.0116 10.1459 33.071 10.2348 33.1133 10.2771C33.1515 10.3236 33.1854 10.3871 33.1854 10.4168C33.1854 10.4463 33.2065 10.4718 33.2275 10.4718C33.2529 10.4718 33.2698 10.5267 33.2698 10.5945Z" fill="white"/>
</g>
<path d="M53.2827 6.57666C59.2964 6.57666 64.1877 11.468 64.1877 17.4818C64.1877 23.4556 59.2964 28.3468 53.2827 28.3468C47.2687 28.3468 42.4175 23.4556 42.4175 17.4818C42.4175 11.468 47.2687 6.57666 53.2827 6.57666ZM53.2827 8.54118C48.3512 8.54118 44.382 12.5104 44.382 17.4818C44.382 22.4131 48.3512 26.3823 53.2827 26.3823C58.2139 26.3823 62.1831 22.4131 62.1831 17.4818C62.1831 12.5104 58.2139 8.54118 53.2827 8.54118ZM67.6054 7.05775H80.0341H81.6378V8.26053L69.4898 25.9012H81.6378V27.8257H66.6031V26.6229L78.7108 9.02231H67.6054V7.05775ZM93.001 7.05775H95.4469L102.984 27.8257H100.899L98.8546 22.2127H89.5933L87.5086 27.8257H85.4638L93.001 7.05775ZM94.2038 9.46331L90.315 20.2482H98.1329L94.2038 9.46331ZM106.596 7.05775H108.52V21.9721L120.427 7.05775H122.953L114.654 17.4818L122.873 27.8257H120.347L113.371 19.0855L108.52 25.1394V27.8257H106.596V7.05775ZM140.539 7.05775H142.985L150.522 27.8257H148.437L146.393 22.2127H137.131L135.047 27.8257H133.001L140.539 7.05775ZM141.741 9.46331L137.853 20.2482H145.67L141.741 9.46331ZM154.133 7.05775H156.057V27.8257H154.133V7.05775Z" fill="white"/>
</g>
</g>
<defs>
<clipPath id="clip0_4167_827">
<rect width="158.5" height="35" fill="white"/>
</clipPath>
<clipPath id="clip1_4167_827">
<rect width="154.583" height="35" fill="white" transform="translate(1.95825)"/>
</clipPath>
</defs>
</svg>
